<?xml version="1.0" encoding="UTF-8"?>
<svg id="Layer_2" data-name="Layer 2" xmlns="http://www.w3.org/2000/svg" viewBox="0 0 87.24 98.21">
  <defs>
    <style>
      .cls-1 {
        fill: #4d008c;
      }

      .cls-1, .cls-2 {
        stroke-width: 0px;
      }

      .cls-2 {
        fill: #9dd4ca;
      }
    </style>
  </defs>
  <g id="logo">
    <g>
      <path id="Path_671" data-name="Path 671" class="cls-1" d="m84.58,80.18c-27.74,4.39-73.36.22-84.58-1.28l.59,1.87c13.2,1.68,61.97,17.44,61.97,17.44,15.09-7.11,22.81-16.21,23.17-16.63l1.51-1.81-2.65.42h-.01Z"/>
      <path id="Path_672" data-name="Path 672" class="cls-2" d="m80.36,53.3C57.71,38.51,37.29,20.56,19.71,0l-.05,2.32c17.81,20.58,38.46,38.51,61.34,53.24l-.64-2.27h0Z"/>
      <path id="Path_673" data-name="Path 673" class="cls-2" d="m80.88,55.12C58.13,41.81,37.48,25.2,19.59,5.85l-.05,2.23c18.12,19.36,38.99,35.93,61.94,49.2l-.6-2.15h0Z"/>
      <path id="Path_674" data-name="Path 674" class="cls-2" d="m81.39,56.95c-22.79-11.89-43.66-27.14-61.92-45.23l-.04,2.13c18.47,18.1,39.55,33.31,62.54,45.14l-.57-2.04h-.01Z"/>
      <path id="Path_675" data-name="Path 675" class="cls-2" d="m19.31,19.64c18.79,16.87,40.09,30.72,63.13,41.06l-.55-1.95c-22.86-10.39-43.95-24.28-62.54-41.16l-.04,2.05Z"/>
      <path id="Path_676" data-name="Path 676" class="cls-2" d="m19.19,25.44c19.13,15.65,40.65,28.13,63.73,36.96l-.52-1.86c-22.91-8.9-44.23-21.41-63.17-37.07l-.04,1.98h0Z"/>
      <path id="Path_677" data-name="Path 677" class="cls-2" d="m19.07,31.26c19.49,14.42,41.22,25.52,64.33,32.85l-.5-1.79c-22.94-7.39-44.49-18.53-63.79-32.96l-.04,1.9Z"/>
      <path id="Path_678" data-name="Path 678" class="cls-2" d="m18.95,37.09c19.86,13.18,41.82,22.89,64.93,28.72l-.48-1.72c-22.95-5.89-44.73-15.64-64.41-28.83l-.04,1.84h0Z"/>
      <path id="Path_679" data-name="Path 679" class="cls-2" d="m18.83,42.94c20.25,11.93,42.43,20.24,65.53,24.57l-.47-1.66c-22.94-4.39-44.95-12.74-65.02-24.68l-.04,1.78h0Z"/>
      <path id="Path_680" data-name="Path 680" class="cls-2" d="m18.71,48.81c20.66,10.67,43.04,17.58,66.12,20.41l-.45-1.62c-22.93-2.88-45.15-9.83-65.64-20.52l-.04,1.73h.01Z"/>
      <path id="Path_681" data-name="Path 681" class="cls-2" d="m18.59,54.69c21.08,9.39,43.68,14.89,66.72,16.23l-.44-1.58c-22.89-1.4-45.33-6.93-66.25-16.33l-.03,1.68Z"/>
      <path id="Path_682" data-name="Path 682" class="cls-2" d="m18.47,60.59c21.52,8.08,44.33,12.16,67.32,12.04l-.43-1.55c-22.84.08-45.5-4.04-66.85-12.13l-.03,1.64h-.01Z"/>
      <path id="Path_683" data-name="Path 683" class="cls-2" d="m85.85,72.81c-22.78,1.53-45.65-1.15-67.46-7.92l-.03,1.61c20.41,6.28,41.74,9.02,63.07,8.11,1.6-.07,3.22-.16,4.85-.28,0,0-.43-1.52-.43-1.52Z"/>
      <path id="Path_684" data-name="Path 684" class="cls-2" d="m86.33,74.53c-22.72,3.04-45.81,1.79-68.07-3.69l-.03,1.58c16.95,4.14,34.41,5.85,51.84,5.1,5.56-.24,11.12-.74,16.68-1.49l-.42-1.5Z"/>
    </g>
  </g>
</svg>