<svg xmlns="http://www.w3.org/2000/svg" width="166.002" height="167.351" viewBox="0 0 166.002 167.351">
  <g id="Group_202" data-name="Group 202" transform="translate(-1287.1 -6120.39)">
    <path id="Path_557" data-name="Path 557" d="M56.781,20.4a14,14,0,0,1,24.106,0l44.3,74.969a14,14,0,0,1-12.053,21.122h-88.6A14,14,0,0,1,12.481,95.367Z" transform="translate(1360.318 6304.545) rotate(-131)" fill="#e9cdc6"/>
    <path id="Path_556" data-name="Path 556" d="M56.781,20.4a14,14,0,0,1,24.106,0l44.3,74.969a14,14,0,0,1-12.053,21.122h-88.6A14,14,0,0,1,12.481,95.367Z" transform="translate(1372.084 6292.779) rotate(-131)" fill="#c54139"/>
  </g>
</svg>
