<svg xmlns="http://www.w3.org/2000/svg" width="44" height="51" viewBox="0 0 44 51">
  <g id="Polygon_10" data-name="Polygon 10" transform="translate(0 51) rotate(-90)" fill="none">
    <path d="M17.713,13.436a9,9,0,0,1,15.574,0l9.882,17.051A9,9,0,0,1,35.382,44H15.618A9,9,0,0,1,7.831,30.487Z" stroke="none"/>
    <path d="M 25.49999809265137 11.94889068603516 C 23.33500862121582 11.94889068603516 21.39436721801758 13.06718826293945 20.30878829956055 14.94034957885742 L 10.42688751220703 31.9914493560791 C 9.338218688964844 33.86994934082031 9.33544921875 36.11454010009766 10.41948699951172 37.99571990966797 C 11.5035285949707 39.87690734863281 13.44693756103516 41 15.61810684204102 41 L 35.38188934326172 41 C 37.55305862426758 41 39.49646759033203 39.87690734863281 40.58050918579102 37.9957275390625 C 41.66454696655273 36.11454010009766 41.66177749633789 33.86994934082031 40.57309722900391 31.9914493560791 L 30.69121742248535 14.94034957885742 C 29.60562896728516 13.06718826293945 27.66498756408691 11.94889068603516 25.49999809265137 11.94889068603516 M 25.5 8.948890686035156 C 28.52656364440918 8.948890686035156 31.55312728881836 10.44461822509766 33.28681945800781 13.43608093261719 L 43.16870880126953 30.48717880249023 C 46.64596939086914 36.48716735839844 42.31667709350586 44 35.38188934326172 44 L 15.61810684204102 44 C 8.683319091796875 44 4.354019165039062 36.48716735839844 7.831287384033203 30.48717880249023 L 17.71318817138672 13.43608093261719 C 19.44687271118164 10.44461822509766 22.47343635559082 8.948890686035156 25.5 8.948890686035156 Z" stroke="none" fill="#e35656"/>
  </g>
</svg>
