<svg id="Group_197" data-name="Group 197" xmlns="http://www.w3.org/2000/svg" xmlns:xlink="http://www.w3.org/1999/xlink" width="583.951" height="101.927" viewBox="0 0 583.951 101.927">
  <defs>
    <clipPath id="clip-path">
      <rect id="Rectangle_144" data-name="Rectangle 144" width="583.951" height="101.927" fill="none"/>
    </clipPath>
    <clipPath id="clip-path-3">
      <rect id="Rectangle_142" data-name="Rectangle 142" width="582.595" height="100.139" transform="translate(0 1.788)" fill="none"/>
    </clipPath>
  </defs>
  <g id="Group_196" data-name="Group 196" clip-path="url(#clip-path)">
    <g id="Group_195" data-name="Group 195">
      <g id="Group_194" data-name="Group 194" clip-path="url(#clip-path)">
        <g id="Group_193" data-name="Group 193" opacity="0.2">
          <g id="Group_192" data-name="Group 192">
            <g id="Group_191" data-name="Group 191" clip-path="url(#clip-path-3)">
              <path id="Path_561" data-name="Path 561" d="M368.043,56.915h0a6.952,6.952,0,0,1-1.059,4.164q-2.043,2.2-5.147.3a3.246,3.246,0,0,1-1.667-1.892q-.528-.908-.983-.152-1.667,3.784-4.467,3.785a3.716,3.716,0,0,1-2.348-.833,5.914,5.914,0,0,1-1.966-2.8,21.008,21.008,0,0,1-.834-8.025q-1.212.153-1.211-.606a7.017,7.017,0,0,1,.908-2.156q.909-1.7,1.137-1.7,1.512,0,1.361,3.86a24.558,24.558,0,0,0,.38,6.321,2.555,2.555,0,0,0,2.724,2.158,4,4,0,0,0,2.688-1.211,3.6,3.6,0,0,0,1.174-3.1,30.687,30.687,0,0,0-.758-5.187,2.47,2.47,0,0,1-.151-1.476q.15-.453.455-1.741.3-.907.908-.152a16.3,16.3,0,0,1,.983,2.348,23.423,23.423,0,0,1,.454,5,6.645,6.645,0,0,0,1.061,3.406q1.742,1.816,3.558,1.059a.971.971,0,0,0,.6-.909q0-1.134-2.575-6.964a3.233,3.233,0,0,1-.377-1.589.612.612,0,0,1,.152-.455q.68-2.649,1.135-2.649t.606,1.589a18.316,18.316,0,0,0,1.741,4.467,13.268,13.268,0,0,1,1.513,5.147" fill="#222121"/>
              <path id="Path_562" data-name="Path 562" d="M192.73,90.616h0q.455,0,.152,2.195a9.279,9.279,0,0,1-.758,2.8,3.146,3.146,0,0,1-2.346,1.513,1.747,1.747,0,0,1-1.817-.757q-1.893-2.649-1.591-7.418A105.042,105.042,0,0,1,188.718,77.9a5.094,5.094,0,0,1,.756-1.665q1.137-1.742,1.137-.53a6.406,6.406,0,0,1-.531,1.893,51.967,51.967,0,0,0-1.967,11.657,6.465,6.465,0,0,0,.755,3.71,1.314,1.314,0,0,0,1.06.605q1.592,0,2.2-2.195.152-.758.606-.757" fill="#222121"/>
              <path id="Path_563" data-name="Path 563" d="M147.2,72.515h0a6.952,6.952,0,0,1-1.059,4.164q-2.043,2.2-5.147.3a3.242,3.242,0,0,1-1.667-1.892q-.528-.907-.983-.152-1.666,3.784-4.467,3.785a3.714,3.714,0,0,1-2.347-.833,5.909,5.909,0,0,1-1.967-2.8,21.008,21.008,0,0,1-.834-8.025q-1.212.153-1.211-.606a7.017,7.017,0,0,1,.908-2.156q.909-1.7,1.137-1.7,1.512,0,1.361,3.86a24.559,24.559,0,0,0,.38,6.321,2.555,2.555,0,0,0,2.724,2.158,4,4,0,0,0,2.688-1.211,3.6,3.6,0,0,0,1.174-3.1,30.686,30.686,0,0,0-.758-5.187,2.47,2.47,0,0,1-.151-1.476q.151-.453.455-1.741.3-.907.908-.152a16.3,16.3,0,0,1,.983,2.348,23.42,23.42,0,0,1,.454,5,6.645,6.645,0,0,0,1.061,3.406q1.742,1.816,3.558,1.059a.971.971,0,0,0,.605-.909q0-1.134-2.574-6.964a3.222,3.222,0,0,1-.378-1.589.616.616,0,0,1,.152-.455q.68-2.649,1.135-2.649t.606,1.589a18.362,18.362,0,0,0,1.741,4.467,13.268,13.268,0,0,1,1.513,5.147" fill="#222121"/>
              <path id="Path_564" data-name="Path 564" d="M119.825,14.851h0q.455.455,0,2.347-.3,1.818-.909,1.817l-.945-1.212a2.617,2.617,0,0,0-2.007-1.211q-2.194,0-3.1,8.138t-1.666,7.986q-.984,0-2.043-3.558a13.467,13.467,0,0,0-4.164-7.04,2.03,2.03,0,0,1-.455.682q-.529.151-2.61-1.022T99.688,19.7q-.453-4.239,1.591-4.239,3.709-.151,7.873,7.949a33.548,33.548,0,0,0,1.741,3.861q.455-3.861,1.211-7.723,1.211-7.191,3.86-7.04,2.046,0,3.861,2.347" fill="#222121"/>
              <path id="Path_565" data-name="Path 565" d="M13.229,37.753h0q-1.969,7.266-6.51,7.267A4.15,4.15,0,0,1,3.009,43.2a16.708,16.708,0,0,1-2.65-9.008A48.75,48.75,0,0,1,1.646,24.73,96.524,96.524,0,0,1,6.567,8q1.439-3.407,2.2-3.407.3.153.3.757a11.291,11.291,0,0,1-.757,3.256Q6.72,13.074,3.917,25.489,2.706,32.453,4.6,36.012a3.831,3.831,0,0,0,3.557,2.5,2.867,2.867,0,0,0,2.271-1.061,17.713,17.713,0,0,0,1.742-2.5q.606-1.362.908-1.362,1.439,0,.152,4.164" fill="#222121"/>
              <path id="Path_566" data-name="Path 566" d="M70.874,17.059h0q.455.454,0,2.347-.3,1.818-.909,1.817l-.945-1.212A2.617,2.617,0,0,0,67.013,18.8q-2.194,0-3.1,8.138t-1.666,7.986q-.984,0-2.043-3.558a13.467,13.467,0,0,0-4.164-7.04,2.03,2.03,0,0,1-.455.682q-.53.151-2.61-1.022T50.737,21.9q-.453-4.239,1.591-4.239,3.709-.152,7.873,7.949a33.547,33.547,0,0,0,1.741,3.861q.454-3.861,1.211-7.723,1.21-7.191,3.86-7.04,2.046,0,3.861,2.347" fill="#222121"/>
              <path id="Path_567" data-name="Path 567" d="M147.09,23.629h0q.455,0,.152,2.195a9.28,9.28,0,0,1-.758,2.8,3.146,3.146,0,0,1-2.346,1.513,1.747,1.747,0,0,1-1.817-.757q-1.893-2.649-1.591-7.418a105.042,105.042,0,0,1,2.348-11.053,5.094,5.094,0,0,1,.756-1.665q1.137-1.742,1.137-.53a6.406,6.406,0,0,1-.531,1.893,51.967,51.967,0,0,0-1.967,11.657,6.455,6.455,0,0,0,.756,3.71,1.311,1.311,0,0,0,1.059.6q1.592,0,2.2-2.195.152-.757.606-.757" fill="#222121"/>
              <path id="Path_568" data-name="Path 568" d="M368.206,18.374h0q1.287-5.3-1.667-5.3-2.649,0-2.65,2.2,0,1.59,4.317,3.1m5.147,2.043h0a5.2,5.2,0,0,1-.682,1.78q-.681,1.324-.833,1.324a18.848,18.848,0,0,1-4.238-1.287q-4.467,6.966-18.245,14.611-1.136.606-5.791,2.384t-4.958,1.628q-.153-.3,4.845-3.1,17.184-9.161,23.088-15.974-5.146-2.346-5.147-5.6,0-1.816,2.2-4.542t4.164-2.724q2.5,0,2.5,5.6a12.755,12.755,0,0,1-.756,4.315q3.859,1.287,3.86,1.589" fill="#222121"/>
              <path id="Path_569" data-name="Path 569" d="M339.153,14.731h0q.454.455,0,2.347-.3,1.818-.909,1.817l-.945-1.212a2.617,2.617,0,0,0-2.007-1.211q-2.194,0-3.1,8.138T330.523,32.6q-.984,0-2.043-3.558A13.467,13.467,0,0,0,324.316,22a2.031,2.031,0,0,1-.455.682q-.529.151-2.61-1.022t-2.235-2.082q-.453-4.239,1.591-4.239,3.709-.151,7.873,7.949a33.373,33.373,0,0,0,1.741,3.861q.454-3.861,1.211-7.723,1.211-7.191,3.86-7.04,2.046,0,3.861,2.347" fill="#222121"/>
              <path id="Path_570" data-name="Path 570" d="M479.008,20.233h0q.455,0,.152,2.195a9.281,9.281,0,0,1-.758,2.8,3.146,3.146,0,0,1-2.346,1.513,1.747,1.747,0,0,1-1.817-.757q-1.893-2.649-1.591-7.418A105.041,105.041,0,0,1,475,7.515a5.094,5.094,0,0,1,.756-1.665q1.137-1.741,1.137-.53a6.406,6.406,0,0,1-.531,1.893,51.967,51.967,0,0,0-1.967,11.657,6.445,6.445,0,0,0,.757,3.71,1.308,1.308,0,0,0,1.058.6q1.592,0,2.2-2.195.151-.757.606-.757" fill="#222121"/>
              <path id="Path_571" data-name="Path 571" d="M335.558,65.751h0q.454,0,.152,2.195a9.28,9.28,0,0,1-.758,2.8,3.146,3.146,0,0,1-2.346,1.513,1.747,1.747,0,0,1-1.817-.757q-1.893-2.649-1.591-7.418a105.049,105.049,0,0,1,2.348-11.053,5.094,5.094,0,0,1,.756-1.665q1.137-1.741,1.137-.53a6.406,6.406,0,0,1-.531,1.893,51.966,51.966,0,0,0-1.967,11.657,6.445,6.445,0,0,0,.757,3.71,1.308,1.308,0,0,0,1.058.605q1.591,0,2.2-2.195.152-.758.606-.757" fill="#222121"/>
              <path id="Path_572" data-name="Path 572" d="M504.784,26.781h0q.3.454-.378,1.932a4.442,4.442,0,0,1-.983,1.626l-19.23,7.116a141.165,141.165,0,0,0-17.715,7.8,4.377,4.377,0,0,1,0-2.345,3.555,3.555,0,0,1,.759-1.893,365.587,365.587,0,0,1,37.547-14.233" fill="#222121"/>
              <path id="Path_573" data-name="Path 573" d="M477.571,67.634h0q0,6.964-3.406,10.75-2.574,2.725-19.078,12.492-18.774,11.05-24.149,11.051-7.039,0-7.04-8.781a41.772,41.772,0,0,1,3.71-16.5q1.816-4.24,2.5-4.164.984,0-1.135,5.338a26.32,26.32,0,0,0-2.12,9.575q0,6.284,5.45,6.284,5.223,0,22.257-9.916,20.667-11.886,20.667-13.1,0-2.8-6.89-6.51-5.3-2.651-10.673-5.3A45.007,45.007,0,0,1,442.9,46.589q-.378-.077-.984-.909-.075-.378-.074-4.088-.076-3.861.15-3.936.909-.151,5.753,2.8t4.619,3.482q-.152.531-3.1.606a57.569,57.569,0,0,0,14.535,9.312q8.555,3.936,10.6,5.752a10.421,10.421,0,0,1,3.178,8.025" fill="#222121"/>
              <path id="Path_574" data-name="Path 574" d="M435.385,3.234l7.873,4.617-3.787,6.814-7.72-4.543-3.18,5.678L420.7,11.183l3.784-6.814L432.2,8.911Zm4.919,52.84h0q0-1.893-7.873-8.857-6.51,7.722-6.51,11.129,0,3.633,3.332,3.634A14.468,14.468,0,0,0,436.6,59.4q3.709-2.344,3.709-3.33m4.845-31.341h0q.834,0-1.891,7.647-.909,2.344-6.814,10.068,6.283,5.3,6.283,10.37,0,7.345-2.8,10.827a19.986,19.986,0,0,1-5.715,4.391q-3.824,2.118-6.019,2.119-5.146,0-5.147-7.949,0-8.1,6.964-17.336-1.211-.984-7.57-10.145-.909-.3-.985-.907a24.271,24.271,0,0,1,0-3.938q.153-3.178.607-3.482.225-.15,3.254,2.045,7.116,5.071,6.662,5.678-.454.756-3.785-.152a32.683,32.683,0,0,0,5.6,6.208q5.073-6.132,8.7-11.508l2.65-3.936" fill="#222121"/>
              <path id="Path_575" data-name="Path 575" d="M251.976,9.6c-.1-.468-.1-.317,0,0" fill="#222121"/>
              <path id="Path_576" data-name="Path 576" d="M286.985,30.7q-2.044-3.406-3.1-3.406-.3,0-.908,3.406t-.607,3.71a5.383,5.383,0,0,0,1.061,1.211,17.13,17.13,0,0,1,2.2,2.8,12.542,12.542,0,0,1,1.817,6.056q0,1.741-14.082,5.148a138.212,138.212,0,0,1-31.619,3.855.85.85,0,0,0-.328-.069q-17.334,0-21.725-5.527-2.5-3.1-1.363-5.98.378-.986-.454-.985-1.287,0-4.239,4.769-4.317,7.116-9.464,7.117a2.545,2.545,0,0,0-.689.09,10.909,10.909,0,0,1-9.3-5.011q-1.588-2.12-2.952-4.24t-3.1-2.12q-2.649,0-6.056,3.559a38.745,38.745,0,0,0-7.116,11.507q-5.451,12.868-9.16,12.869-3.255,0-5.716-3.936a18.564,18.564,0,0,1-2.46-9.994,44.543,44.543,0,0,1,.606-6.812q.454-2.348-.152-2.348-.832-.15-1.741,3.861a42.861,42.861,0,0,0-.909,8.857,19.22,19.22,0,0,0,3.256,10.827q3.255,5.449,7.116,5.449,3.71,0,6.511-5.3,2.346-5.223,4.466-10.673,4.542-9.765,9.841-9.766,1.816,0,5.868,5.337,3.923,5.169,9.516,5.327a.825.825,0,0,0,.362.086q6.36,0,9.918-5.905a41.054,41.054,0,0,1,2.8-4.391q3.408,10.9,24.529,10.9a2.555,2.555,0,0,0,.674-.086,124.037,124.037,0,0,0,28.243-3.4q15.519-3.709,18.623-7.419,2.65-2.952,2.65-9.462a17.807,17.807,0,0,0-2.8-9.918" fill="#222121"/>
              <path id="Path_577" data-name="Path 577" d="M222.675,82.2l6.36,3.71-3.786,6.813L217.376,88.1l3.71-6.738-6.36-3.71,3.786-6.812,7.873,4.617Z" fill="#222121"/>
              <path id="Path_578" data-name="Path 578" d="M183.3,25.149l6.36,3.71-3.786,6.813-7.873-4.618,3.71-6.738-6.36-3.71,3.786-6.812,7.873,4.617Z" fill="#222121"/>
              <path id="Path_579" data-name="Path 579" d="M29.524,33.458,37.247,38l3.784-6.814L33.158,26.57l-3.18,5.677-7.721-4.542-3.786,6.813,7.873,4.618Z" fill="#222121"/>
              <path id="Path_580" data-name="Path 580" d="M66.392,82.742,58.669,78.2l-3.784,6.814,7.873,4.617,3.18-5.677L73.659,88.5l3.786-6.814-7.873-4.618Z" fill="#222121"/>
              <path id="Path_581" data-name="Path 581" d="M144.745,39.515q-2.348-4.39-5.375-4.39-4.543,0-8.4,6.964h-.454a54.875,54.875,0,0,0-3.71,5.451,17.383,17.383,0,0,1-5.3,4.769q-4.465,2.952-13.777,5a90.483,90.483,0,0,1-21.4,2.644A.854.854,0,0,0,86,59.88q-17.335,0-21.726-5.527-2.5-3.1-1.362-5.98.378-.986-.455-.985-1.286,0-4.238,4.769-4.317,7.117-9.464,7.117a2.592,2.592,0,0,0-.69.09,10.909,10.909,0,0,1-9.3-5.011q-1.59-2.12-2.952-4.24t-3.1-2.119q-2.649,0-6.056,3.558a38.737,38.737,0,0,0-7.116,11.507q-5.451,12.87-9.16,12.87-3.255,0-5.716-3.937A18.564,18.564,0,0,1,2.195,62,44.43,44.43,0,0,1,2.8,55.186q.453-2.348-.152-2.347Q1.817,52.687.909,56.7A42.868,42.868,0,0,0,0,65.556,19.213,19.213,0,0,0,3.256,76.383q3.254,5.449,7.116,5.449,3.71,0,6.51-5.3Q19.23,71.31,21.349,65.86q4.54-9.765,9.84-9.766,1.818,0,5.869,5.337,3.921,5.17,9.516,5.327a.825.825,0,0,0,.362.086q6.36,0,9.918-5.905a40.988,40.988,0,0,1,2.8-4.391q3.408,10.9,24.529,10.9a2.545,2.545,0,0,0,.672-.085,101.483,101.483,0,0,0,19.767-2.185q9.462-1.817,13.627-4.316a21.422,21.422,0,0,0,6.055-4.92q1.212-1.59,4.013-6.057a22.464,22.464,0,0,0,6.964,4.921q4.239,2.043,6.36,2.043,1.287,0,3.369-3.556a13.759,13.759,0,0,0,2.081-6.966,13.58,13.58,0,0,0-2.346-6.813m-8.025,7q-3.406-2.08-3.256-2.535.606-1.212,3.71-1.212,1.212,0,2.763,1.931a8.251,8.251,0,0,1,1.854,3.9q-1.665,0-5.071-2.082" fill="#222121"/>
              <path id="Path_582" data-name="Path 582" d="M45.79,81.414h0q.454.455,0,2.347-.3,1.818-.909,1.817l-.945-1.212a2.617,2.617,0,0,0-2.007-1.211q-2.195,0-3.1,8.138T37.16,99.279q-.984,0-2.043-3.558a13.467,13.467,0,0,0-4.164-7.04,2.03,2.03,0,0,1-.455.682q-.529.151-2.61-1.022t-2.235-2.082Q25.2,82.02,27.244,82.02q3.709-.151,7.873,7.949a33.547,33.547,0,0,0,1.741,3.861q.454-3.861,1.211-7.723,1.21-7.191,3.86-7.04,2.046,0,3.861,2.347" fill="#222121"/>
              <path id="Path_583" data-name="Path 583" d="M580.172,61.138c-1.552-9.362-3.419-20.159-4.958-28.951A8.764,8.764,0,0,0,576.5,30.7c3.417-4.99,3.381-9.127,2.243-12.233-.785-2.14-3.782-6.542-7.646-11.955a18.259,18.259,0,0,1-1.359-2.138c-.73-1.429-.433-2.183-.667-2.584l-3.133,8.688a.462.462,0,0,0,.151.527l.9.693c.484,3.159,2.185,14.25,3.372,21.653a28.615,28.615,0,0,1-6.169,2.558.084.084,0,0,0,.037.164,36.566,36.566,0,0,0,6.354-1.354c.3,1.867.559,3.412.734,4.392q5.831,33.537,7.268,47.769,0,.681.378,6.51.153,2.726.682,2.726.909,0,2.2-6.586a33.4,33.4,0,0,0,.757-6.965q0-5.451-2.424-21.425M576.2,19.4c1.237,1.414,1.742,6.985-1.284,10.359-.034.038-.073.076-.107.114-1.167-6.656-2.093-11.858-2.458-13.9A42.041,42.041,0,0,1,576.2,19.4" fill="#222121"/>
              <path id="Path_584" data-name="Path 584" d="M559.626,40.624c-.459-2.631-1.058-5.813-1.7-9.181a9.2,9.2,0,0,0,.578-.745c3.417-4.99,3.382-9.127,2.243-12.233-.785-2.14-3.782-6.542-7.646-11.955a18.4,18.4,0,0,1-1.36-2.138c-.728-1.429-.433-2.183-.666-2.584l-3.133,8.688a.463.463,0,0,0,.152.527c.229.176.6.467,1.062.823.752,4.815,2.181,12.6,3.742,21.209a27.909,27.909,0,0,1-6.706,2.872.084.084,0,0,0,.036.164,34.066,34.066,0,0,0,6.937-1.559c.663,3.659,1.342,7.44,2,11.184,3.179,18.269,3.546,20.882,3.646,25.778a11.823,11.823,0,0,1-2.269,7.191q-3.937,5.526-16.05,13.628a117.549,117.549,0,0,1-10.825,6.358q-4.92,2.649-4.845,2.877.15.379,7.115-1.06,12.038-2.5,17.336-6.132,13.551-9.613,13.173-31.265c-.1-6.006-.19-7.509-2.816-22.447M558.2,19.4c1.155,1.321,1.671,6.266-.732,9.663-.814-4.224-1.666-8.6-2.393-12.492A34.484,34.484,0,0,1,558.2,19.4" fill="#222121"/>
              <path id="Path_585" data-name="Path 585" d="M413.351,61.758c-1.667-10.054-3.567-21.032-5.066-29.58a8.728,8.728,0,0,0,1.278-1.48c3.418-4.99,3.382-9.127,2.243-12.233-.785-2.14-3.782-6.542-7.646-11.955A18.388,18.388,0,0,1,402.8,4.372c-.729-1.429-.433-2.183-.667-2.584L399,10.476a.463.463,0,0,0,.152.527c.206.159.53.409.925.716.01.059.018.111.025.152.825,5.125,2.213,14.436,3.331,21.471a28.629,28.629,0,0,1-6.183,2.565.084.084,0,0,0,.037.164,36.514,36.514,0,0,0,6.365-1.357c.315,1.955.6,3.681.84,5.014q5.83,33.537,7.269,47.769,0,.681.378,6.51.151,2.725.682,2.726.908,0,2.2-6.586a33.394,33.394,0,0,0,.757-6.964q0-5.453-2.423-21.425M409.259,19.4c1.237,1.414,1.743,6.985-1.284,10.359l-.1.1c-1.325-7.543-2.248-12.689-2.248-12.689s-.092-.563-.213-1.2a41.843,41.843,0,0,1,3.842,3.424" fill="#222121"/>
              <path id="Path_586" data-name="Path 586" d="M170.14,32.428a8.762,8.762,0,0,0,1.567-1.73c3.418-4.99,3.382-9.127,2.243-12.233-.785-2.14-3.782-6.542-7.646-11.955a18.384,18.384,0,0,1-1.359-2.138c-.729-1.429-.433-2.183-.666-2.584l-3.134,8.688A.464.464,0,0,0,161.3,11c.175.135.434.335.749.58,1.1,7.722,2.231,15.968,3.108,21.995a29.245,29.245,0,0,1-5.759,2.329.084.084,0,0,0,.037.164,38.17,38.17,0,0,0,5.909-1.217c.247,1.677.471,3.145.663,4.331q6.965,39.517,6.965,47.769,0,.909-2.613,2.309a9.958,9.958,0,0,1-4.47,1.4,9.566,9.566,0,0,1-5.559-1.739,4.823,4.823,0,0,1-2.65-4.618,8.438,8.438,0,0,0,0-2.5q-.756-.3-2.5,2.8-.907,2.044-1.969,4.012a5.3,5.3,0,0,1-5,2.2q-4.769-.153-4.769-3.861a12.626,12.626,0,0,1,.606-2.65q.454-1.438,0-1.59-.758-.15-2.347,2.195a38.891,38.891,0,0,1-3.558,4.695,11.931,11.931,0,0,1-8.554,3.406q-4.92,0-5.527-5.147a17.707,17.707,0,0,1,.3-2.954q.152-1.059-.3-1.211-.53-.15-1.741.909-4.314,4.467-5.3,5.451a11.661,11.661,0,0,1-7.873,2.8h-.012q-12.1-.011-14.9-17.791-.151-.908-3.1-26.5a275.583,275.583,0,0,0-5.375-31.643,63.669,63.669,0,0,0-2.877-8.782Q81.368,4.362,80.99,4.363q-.228,0-1.363,3.784t-.984,4.163Q84.7,24.575,89.772,76.2q2.413,24.148,17.467,24.223c.007,0,.012,0,.019,0l.039,0h.037c.025,0,.047,0,.071,0q8-.072,13.253-7.944,0,8.1,7.419,8.1,7.268,0,12.263-8.555a5.705,5.705,0,0,0,1.25,4.43,4.875,4.875,0,0,0,3.974,1.93q6.207,0,9.161-8.025.15,0,.757,1.515a12.166,12.166,0,0,0,1.589,2.8,8.385,8.385,0,0,0,6.836,3.4c.018,0,.034.007.053.007l.045,0,.03,0c.035,0,.067,0,.1-.006q8.7-.1,11.179-9.458a43.844,43.844,0,0,0,1.513-10.37q0-6.513-3.255-25.892c-1.091-5.989-2.271-12.978-3.434-19.929M171.4,19.4c1.237,1.414,1.743,6.985-1.284,10.359-.116.129-.237.258-.361.388-.836-4.995-1.656-9.908-2.424-14.357A44.422,44.422,0,0,1,171.4,19.4" fill="#222121"/>
              <path id="Path_587" data-name="Path 587" d="M204.079,61.758c-1.667-10.054-3.567-21.032-5.066-29.58a8.728,8.728,0,0,0,1.278-1.48c3.418-4.99,3.382-9.127,2.243-12.233-.785-2.14-3.782-6.542-7.646-11.955a18.384,18.384,0,0,1-1.359-2.138c-.729-1.429-.433-2.183-.666-2.584l-3.134,8.688a.464.464,0,0,0,.152.527c.206.159.53.409.925.716.01.059.018.111.025.152.825,5.125,2.213,14.436,3.331,21.471a28.629,28.629,0,0,1-6.183,2.565.084.084,0,0,0,.037.164,36.514,36.514,0,0,0,6.365-1.357c.315,1.955.6,3.681.84,5.014q5.831,33.537,7.269,47.769,0,.681.378,6.51.151,2.725.682,2.726.907,0,2.195-6.586a33.394,33.394,0,0,0,.757-6.964q0-5.453-2.423-21.425M199.987,19.4c1.237,1.414,1.743,6.985-1.284,10.359l-.1.1c-1.325-7.543-2.248-12.689-2.248-12.689s-.092-.563-.213-1.2a41.84,41.84,0,0,1,3.842,3.424" fill="#222121"/>
              <path id="Path_588" data-name="Path 588" d="M394.32,53.25c-1.025-5.629-2.5-13.9-3.773-21.058a8.707,8.707,0,0,0,1.294-1.494c3.418-4.99,3.383-9.127,2.243-12.233-.784-2.14-3.781-6.542-7.645-11.955a18.39,18.39,0,0,1-1.36-2.138c-.728-1.429-.433-2.183-.666-2.584l-3.133,8.688a.463.463,0,0,0,.152.527c.237.183.632.488,1.115.864.022.165.04.277.04.277s1.808,12.454,3.125,21.2a28.59,28.59,0,0,1-6.182,2.565.084.084,0,0,0,.036.164,36.567,36.567,0,0,0,6.354-1.354c.335,2.214.627,4.107.831,5.361q6.965,39.517,6.965,47.769,0,.908-2.613,2.308a9.948,9.948,0,0,1-4.47,1.4,9.562,9.562,0,0,1-5.56-1.74,4.82,4.82,0,0,1-2.649-4.617,8.448,8.448,0,0,0,0-2.5q-.758-.3-2.5,2.8-.909,2.046-1.969,4.013a5.292,5.292,0,0,1-5,2.195q-4.768-.151-4.769-3.86a12.613,12.613,0,0,1,.606-2.65q.455-1.438,0-1.591-.758-.15-2.347,2.2a39.054,39.054,0,0,1-3.558,4.694,11.928,11.928,0,0,1-8.554,3.407q-4.92,0-5.527-5.148a17.8,17.8,0,0,1,.3-2.953q.153-1.059-.3-1.211-.529-.15-1.741.908-4.316,4.467-5.3,5.452a11.666,11.666,0,0,1-7.873,2.8h-.015q-5.969-.007-8.918-5.6-1.438-2.65-2.573-9.084-.379-2.423-1.439-10.22c-2.019-15.6-6.307-37.912-11.2-60.471q-1.363-6.586-2.574-6.586-.378,0-1.4,3.558a20.24,20.24,0,0,0-.946,4.012q1.211,5.677,1.513,7.193c5.754,31.694,9.79,53.632,10.446,59.334q.529,4.921-2.2,7.571a30.531,30.531,0,0,1-15.746,7.721h-.006q5.229-5.559,5.381-10.3a10.053,10.053,0,0,0-3.1-7.04q-4.013-3.861-11.279-3.861-10.145,0-22.484,13.475,1.818-3.861,1.817-11.734A166.6,166.6,0,0,0,263.2,49.693c-.792-5.242-1.8-11.547-2.786-17.568a8.7,8.7,0,0,0,1.222-1.427c3.418-4.99,3.382-9.127,2.243-12.233-.784-2.14-3.781-6.542-7.646-11.955a18.388,18.388,0,0,1-1.359-2.138c-.728-1.429-.433-2.183-.666-2.584l-3.134,8.688a.465.465,0,0,0,.153.527c.222.171.583.451,1.023.793.884,5.677,2.265,13.956,3.507,21.4a28.3,28.3,0,0,1-6.432,2.711.084.084,0,0,0,.036.164A35.346,35.346,0,0,0,256,34.62c.676,4.055,1.3,7.786,1.756,10.606q3.859,24.3,3.86,34.369,0,5.451-1.06,7.343-5.3,6.964-5.6,7.418h-.011q-12.027-.009-14.827-17.79-3.179-24.453-4.693-38.306c-1.06-7.368-2.714-16.76-3.32-19.889Q229,1.944,226.12,1.944q-.909,0-2.574,4.088a18.328,18.328,0,0,0-1.665,6.208q0,.909.454.983.606.077,1.25-1.324t.793-1.4c1.313,0,4.053,12.168,6.576,28.217q2.348,15.291,4.7,38.986,2.413,24.146,17.39,24.222c.007,0,.013,0,.02,0h.078a113.843,113.843,0,0,0,15.9-.909c.167-.025.324-.053.49-.079q23.155-.057,33.5-5.522a26.633,26.633,0,0,0,7.8-5.753,25.555,25.555,0,0,0,4.239-8.252q3.012,19.806,12.92,19.906c.009,0,.016,0,.025,0h.077c.024,0,.047,0,.071,0q8-.074,13.252-7.945,0,8.1,7.419,8.1,7.268,0,12.263-8.555a5.706,5.706,0,0,0,1.25,4.43,4.877,4.877,0,0,0,3.973,1.93q6.209,0,9.162-8.025.15,0,.756,1.515a12.162,12.162,0,0,0,1.59,2.8,8.385,8.385,0,0,0,6.836,3.4c.018,0,.034.007.052.007l.045,0,.031,0c.035,0,.067,0,.1-.007q8.7-.095,11.179-9.457a43.844,43.844,0,0,0,1.513-10.371q0-6.511-3.256-25.891m-4.183-23.37c-1.227-6.913-2.175-12.286-2.175-12.286l-.3-1.651a42.256,42.256,0,0,1,3.878,3.453c1.236,1.414,1.742,6.985-1.284,10.359-.038.042-.079.084-.117.125M261.335,19.4c1.237,1.414,1.743,6.985-1.284,10.359l-.018.02c-.846-5.165-1.644-9.976-2.229-13.547a38.567,38.567,0,0,1,3.531,3.168M257.9,94.206q13.931-16.883,25.588-16.73a16.878,16.878,0,0,1,8.366,2.535q3.9,2.385,3.6,4.581-.227,1.968-13.248,5.752-13.929,3.862-24.3,3.862" fill="#222121"/>
              <path id="Path_589" data-name="Path 589" d="M553.434,68.1q-1.893-8.856-10.22-18.546-.454-.53-16.958-18.7c-1.279-1.405-2.539-2.843-3.748-4.257,1.131-5.764-.471-9.495-2.682-11.887-1.547-1.673-6.006-4.585-11.654-8.1A18.22,18.22,0,0,1,506.1,5.166c-1.222-1.038-1.239-1.848-1.608-2.129l.447,9.226a.465.465,0,0,0,.343.428l.895.241a114.468,114.468,0,0,0,12.469,17.593,26.975,26.975,0,0,1-5.545,5.886.084.084,0,0,0,.1.138,30.687,30.687,0,0,0,6.5-4.781q1.347,1.578,2.777,3.178L539.882,53.72a64.306,64.306,0,0,1,11.053,16.2q.379.986,1.439,5,.756,3.028,1.286,3.028,1.893,0-.226-9.842m-35.6-51.55c1.457.718,3.6,4.512,3.187,8.291-3.729-4.449-6.763-8.394-7.938-9.941a40.786,40.786,0,0,1,4.751,1.65" fill="#222121"/>
              <path id="Path_590" data-name="Path 590" d="M570.815,91.952h0q.15.226-.493,1.93a7.267,7.267,0,0,1-.794,1.779q-8.025,2.574-11.205,5.527-.907.907-.908-.152a4.752,4.752,0,0,1,3.028-4.391,4.391,4.391,0,0,1-2.272-4.239q0-6.283,6.512-6.283,2.875,0,2.876,2.649,0,2.725-1.967,2.8a2.449,2.449,0,0,0-2.726-2.2q-2.5,0-2.5,1.817,0,2.952,5,2.952a19.558,19.558,0,0,0,4.315-1.893q.984-.529,1.136-.3" fill="#222121"/>
              <path id="Path_591" data-name="Path 591" d="M511.41,60.61l7.647,4.467,3.784-6.814-7.873-4.617-3.18,5.753-7.645-4.467-3.786,6.813,7.875,4.619Z" fill="#222121"/>
              <path id="Path_592" data-name="Path 592" d="M514.438,47.74l-7.873-4.617-3.784,6.812,7.872,4.619Z" fill="#222121"/>
              <path id="Path_593" data-name="Path 593" d="M531.548,77.264q-.682-2.043-.984-2.043t-1.552,3.1a17.379,17.379,0,0,0-1.25,3.709,2.89,2.89,0,0,0,.795,1.515,3.131,3.131,0,0,1,.8,1.967q0,1.665-3.408,1.665a7.089,7.089,0,0,1-5.45-2.195,4.69,4.69,0,0,1-1.212-4.919q.606-1.893.454-2.045-.756-.6-2.043,1.286a16.62,16.62,0,0,0-1.515,3.559q-3.1,7.872-9.764,7.873-6.814,0-6.814-5.072a9,9,0,0,1,1.06-3.784q.3-.759-.152-.909-.3-.151-1.211.605a13.005,13.005,0,0,0-1.893,2.045q-5.768,8.061-11.422,9.136a43.029,43.029,0,0,1-11.071.013q-10.626-1.133-13.238-17.7-3.179-24.453-4.693-38.306-1.59-11.052-2.5-15.746Q451.38,4.589,448.5,4.589q-.909,0-2.574,4.089a18.318,18.318,0,0,0-1.665,6.207q0,.909.454.983.606.076,1.25-1.324t.793-1.4q1.969,0,5.754,24.073,2.348,15.292,4.7,38.987c1.3,13.049,7.149,21.447,14.267,23.693a.163.163,0,0,0,.019.009c.027.009.058.015.086.024q.357.109.72.2l.1.024c.19.045.38.085.572.122,4.515.922,11.3.557,14.187-.881.012-.006.019-.017.03-.024a15.968,15.968,0,0,0,4.921-3.331,68.837,68.837,0,0,0,4.543-5.9,7.97,7.97,0,0,0,2.232,5.98,7.607,7.607,0,0,0,5.792,2.573,11.988,11.988,0,0,0,9.614-6.207q1.891-3.558,2.2-4.239.909,6.888,7.721,6.888,7.949,0,7.949-13.1a19.05,19.05,0,0,0-.605-4.769" fill="#222121"/>
              <path id="Path_594" data-name="Path 594" d="M273.91,12.38,281.783,17,278,23.811l-7.874-4.619Z" fill="#222121"/>
              <path id="Path_595" data-name="Path 595" d="M32.741,14.43h0q0-.3-2.233-1.93a19.534,19.534,0,0,0-2.384-1.628q-.3,0-.871,1.552a7.65,7.65,0,0,0-.568,2.158,1.539,1.539,0,0,0,1.741,1.741,8.066,8.066,0,0,0,2.537-.719q1.777-.72,1.778-1.174m1.893-1.513h0q0,7.266-6.51,7.267-3.257,0-3.256-4.013A15.509,15.509,0,0,1,27.82,7.314q.758-2.5,1.212-2.5t.151.606a5.317,5.317,0,0,0-.454,1.892q5.9,3.558,5.9,5.6" fill="#222121"/>
            </g>
          </g>
        </g>
        <path id="Path_596" data-name="Path 596" d="M369.4,55.128h0a6.952,6.952,0,0,1-1.058,4.164q-2.043,2.2-5.147.3a3.239,3.239,0,0,1-1.667-1.892q-.529-.907-.983-.152-1.668,3.785-4.466,3.785a3.717,3.717,0,0,1-2.349-.833,5.9,5.9,0,0,1-1.966-2.8,21.007,21.007,0,0,1-.835-8.025q-1.211.153-1.211-.606a7.031,7.031,0,0,1,.909-2.156q.908-1.7,1.137-1.7,1.512,0,1.36,3.86a24.505,24.505,0,0,0,.381,6.321,2.554,2.554,0,0,0,2.724,2.158,4,4,0,0,0,2.687-1.211,3.6,3.6,0,0,0,1.175-3.1,30.8,30.8,0,0,0-.758-5.187,2.463,2.463,0,0,1-.151-1.476q.15-.453.454-1.741.3-.907.909-.152a16.529,16.529,0,0,1,.983,2.348,23.493,23.493,0,0,1,.453,5,6.664,6.664,0,0,0,1.061,3.406q1.743,1.817,3.559,1.059a.972.972,0,0,0,.6-.909q0-1.134-2.574-6.964a3.233,3.233,0,0,1-.378-1.589.616.616,0,0,1,.153-.455q.68-2.649,1.135-2.649t.606,1.589a18.338,18.338,0,0,0,1.74,4.467,13.251,13.251,0,0,1,1.513,5.147" fill="#9f0c1d"/>
        <path id="Path_597" data-name="Path 597" d="M194.085,88.828h0q.454,0,.152,2.195a9.22,9.22,0,0,1-.758,2.8,3.146,3.146,0,0,1-2.346,1.513,1.748,1.748,0,0,1-1.817-.757q-1.893-2.649-1.591-7.418a104.863,104.863,0,0,1,2.349-11.053,5.074,5.074,0,0,1,.755-1.665q1.137-1.742,1.137-.53a6.426,6.426,0,0,1-.53,1.893,51.923,51.923,0,0,0-1.968,11.657,6.455,6.455,0,0,0,.756,3.71,1.311,1.311,0,0,0,1.059.6q1.591,0,2.2-2.195c.1-.5.3-.757.606-.757" fill="#9f0c1d"/>
        <path id="Path_598" data-name="Path 598" d="M148.558,70.727h0a6.952,6.952,0,0,1-1.059,4.164q-2.043,2.2-5.147.3a3.242,3.242,0,0,1-1.667-1.892q-.528-.908-.983-.152-1.666,3.784-4.467,3.785a3.714,3.714,0,0,1-2.347-.833,5.909,5.909,0,0,1-1.967-2.8,21.008,21.008,0,0,1-.834-8.025q-1.212.153-1.211-.606a7.017,7.017,0,0,1,.908-2.156q.909-1.7,1.137-1.7,1.512,0,1.361,3.86a24.559,24.559,0,0,0,.38,6.321,2.555,2.555,0,0,0,2.724,2.158,4,4,0,0,0,2.688-1.211,3.6,3.6,0,0,0,1.174-3.1,30.686,30.686,0,0,0-.758-5.187,2.47,2.47,0,0,1-.151-1.476q.151-.453.455-1.741.3-.907.908-.152a16.3,16.3,0,0,1,.983,2.348,23.42,23.42,0,0,1,.454,5,6.645,6.645,0,0,0,1.061,3.406q1.741,1.816,3.558,1.059a.971.971,0,0,0,.605-.909q0-1.134-2.574-6.964a3.222,3.222,0,0,1-.378-1.589.616.616,0,0,1,.152-.455q.68-2.649,1.135-2.649t.606,1.589a18.362,18.362,0,0,0,1.741,4.467,13.268,13.268,0,0,1,1.513,5.147" fill="#9f0c1d"/>
        <path id="Path_599" data-name="Path 599" d="M121.181,13.063h0q.455.455,0,2.347-.3,1.818-.909,1.817l-.945-1.212A2.617,2.617,0,0,0,117.32,14.8q-2.194,0-3.1,8.138t-1.666,7.986q-.984,0-2.043-3.558a13.467,13.467,0,0,0-4.164-7.04,2.03,2.03,0,0,1-.455.682q-.529.152-2.61-1.022t-2.235-2.082q-.453-4.239,1.591-4.239,3.709-.151,7.873,7.949a33.546,33.546,0,0,0,1.741,3.861q.455-3.861,1.211-7.723,1.21-7.191,3.86-7.04,2.046,0,3.861,2.347" fill="#9f0c1d"/>
        <path id="Path_600" data-name="Path 600" d="M14.585,35.965h0q-1.969,7.266-6.51,7.267a4.15,4.15,0,0,1-3.71-1.817,16.708,16.708,0,0,1-2.65-9.008A48.733,48.733,0,0,1,3,22.943,96.507,96.507,0,0,1,7.923,6.213q1.439-3.406,2.2-3.406.3.152.3.756a11.291,11.291,0,0,1-.757,3.256Q8.075,11.286,5.273,23.7q-1.21,6.964.682,10.523a3.831,3.831,0,0,0,3.557,2.5,2.867,2.867,0,0,0,2.271-1.061,17.713,17.713,0,0,0,1.742-2.5q.606-1.362.908-1.362,1.439,0,.152,4.164" fill="#9f0c1d"/>
        <path id="Path_601" data-name="Path 601" d="M72.23,15.271h0q.454.455,0,2.347-.3,1.818-.909,1.817l-.945-1.212a2.617,2.617,0,0,0-2.007-1.211q-2.195,0-3.1,8.138T63.6,33.136q-.984,0-2.043-3.558a13.467,13.467,0,0,0-4.164-7.04,2.03,2.03,0,0,1-.455.682q-.53.151-2.61-1.022t-2.235-2.082q-.453-4.239,1.591-4.239,3.71-.151,7.873,7.949A33.547,33.547,0,0,0,63.3,27.687q.455-3.861,1.211-7.723,1.21-7.191,3.86-7.04,2.046,0,3.861,2.347" fill="#9f0c1d"/>
        <path id="Path_602" data-name="Path 602" d="M148.447,21.842h0c.3,0,.354.732.151,2.2a9.221,9.221,0,0,1-.758,2.8,3.146,3.146,0,0,1-2.345,1.513,1.747,1.747,0,0,1-1.817-.757q-1.895-2.649-1.591-7.418a105.041,105.041,0,0,1,2.348-11.053,5.053,5.053,0,0,1,.756-1.665q1.137-1.742,1.136-.53a6.426,6.426,0,0,1-.53,1.893,51.982,51.982,0,0,0-1.968,11.657,6.445,6.445,0,0,0,.757,3.71,1.311,1.311,0,0,0,1.059.605q1.591,0,2.195-2.195.151-.758.607-.757" fill="#9f0c1d"/>
        <path id="Path_603" data-name="Path 603" d="M369.563,16.586h0q1.287-5.3-1.667-5.3-2.649,0-2.65,2.2,0,1.59,4.317,3.1m5.147,2.043h0a5.2,5.2,0,0,1-.682,1.78q-.681,1.324-.833,1.324a18.87,18.87,0,0,1-4.239-1.287q-4.465,6.966-18.245,14.611-1.134.606-5.79,2.384t-4.958,1.628q-.153-.3,4.845-3.1,17.184-9.161,23.088-15.974-5.146-2.346-5.147-5.6,0-1.817,2.2-4.542t4.164-2.724q2.5,0,2.5,5.6a12.755,12.755,0,0,1-.756,4.315q3.859,1.287,3.86,1.589" fill="#9f0c1d"/>
        <path id="Path_604" data-name="Path 604" d="M340.509,12.943h0q.455.455,0,2.347-.3,1.818-.909,1.817l-.945-1.212a2.617,2.617,0,0,0-2.007-1.211q-2.195,0-3.1,8.138t-1.666,7.986q-.984,0-2.043-3.558a13.466,13.466,0,0,0-4.164-7.04,2.03,2.03,0,0,1-.455.682q-.529.151-2.61-1.022t-2.235-2.082q-.453-4.239,1.591-4.239,3.709-.151,7.873,7.949a33.379,33.379,0,0,0,1.741,3.861q.455-3.861,1.211-7.723,1.211-7.191,3.86-7.04,2.046,0,3.861,2.347" fill="#9f0c1d"/>
        <path id="Path_605" data-name="Path 605" d="M480.364,18.446h0q.454,0,.152,2.2a9.28,9.28,0,0,1-.758,2.8,3.146,3.146,0,0,1-2.346,1.513A1.747,1.747,0,0,1,475.6,24.2Q473.7,21.55,474,16.781a105.049,105.049,0,0,1,2.348-11.053,5.094,5.094,0,0,1,.756-1.665q1.137-1.742,1.137-.53a6.406,6.406,0,0,1-.531,1.893,51.968,51.968,0,0,0-1.967,11.657,6.445,6.445,0,0,0,.757,3.71,1.308,1.308,0,0,0,1.058.605q1.591,0,2.2-2.2.152-.757.606-.757" fill="#9f0c1d"/>
        <path id="Path_606" data-name="Path 606" d="M336.914,63.963h0q.455,0,.152,2.195a9.28,9.28,0,0,1-.758,2.8,3.146,3.146,0,0,1-2.346,1.513,1.747,1.747,0,0,1-1.817-.757q-1.893-2.649-1.591-7.418A105.044,105.044,0,0,1,332.9,51.245a5.094,5.094,0,0,1,.756-1.665q1.137-1.742,1.137-.53a6.406,6.406,0,0,1-.531,1.893A51.967,51.967,0,0,0,332.3,62.6a6.445,6.445,0,0,0,.757,3.71,1.308,1.308,0,0,0,1.058.605q1.592,0,2.2-2.195.151-.758.606-.757" fill="#9f0c1d"/>
        <path id="Path_607" data-name="Path 607" d="M506.14,24.993h0q.3.454-.378,1.932a4.441,4.441,0,0,1-.983,1.626l-19.23,7.116a141.162,141.162,0,0,0-17.715,7.8,4.377,4.377,0,0,1,0-2.345,3.555,3.555,0,0,1,.759-1.893A365.587,365.587,0,0,1,506.14,24.993" fill="#9f0c1d"/>
        <path id="Path_608" data-name="Path 608" d="M478.927,65.846h0q0,6.964-3.406,10.75-2.574,2.726-19.078,12.492-18.774,11.051-24.149,11.051-7.039,0-7.04-8.781a41.772,41.772,0,0,1,3.71-16.5q1.816-4.241,2.5-4.164.984,0-1.135,5.338a26.32,26.32,0,0,0-2.12,9.575q0,6.284,5.45,6.284,5.223,0,22.257-9.916,20.667-11.886,20.667-13.1,0-2.8-6.89-6.51-5.3-2.65-10.673-5.3A45.007,45.007,0,0,1,444.255,44.8q-.378-.076-.984-.909-.075-.378-.074-4.088-.076-3.861.15-3.936.909-.152,5.753,2.8t4.619,3.482q-.151.531-3.1.606a57.569,57.569,0,0,0,14.535,9.312q8.555,3.936,10.6,5.752a10.421,10.421,0,0,1,3.178,8.025" fill="#545252"/>
        <path id="Path_609" data-name="Path 609" d="M436.741,1.446l7.873,4.617-3.787,6.814-7.72-4.543-3.18,5.678L422.054,9.4l3.784-6.814,7.723,4.542Zm4.919,52.84h0q0-1.893-7.873-8.857-6.51,7.722-6.51,11.129,0,3.633,3.332,3.634a14.468,14.468,0,0,0,7.342-2.576q3.71-2.344,3.709-3.33m4.845-31.341h0q.834,0-1.891,7.647Q443.7,32.936,437.8,40.66q6.284,5.3,6.283,10.37,0,7.345-2.8,10.827a19.986,19.986,0,0,1-5.715,4.391q-3.823,2.118-6.019,2.119-5.146,0-5.147-7.949,0-8.1,6.964-17.336-1.21-.984-7.57-10.145-.909-.3-.985-.907a24.271,24.271,0,0,1,0-3.938q.153-3.178.607-3.482.225-.15,3.254,2.045,7.116,5.071,6.662,5.678-.455.756-3.785-.152a32.683,32.683,0,0,0,5.6,6.208q5.073-6.132,8.705-11.508l2.65-3.936" fill="#545252"/>
        <path id="Path_610" data-name="Path 610" d="M253.332,7.81c-.1-.468-.1-.317,0,0" fill="#545252"/>
        <path id="Path_611" data-name="Path 611" d="M288.341,28.909q-2.045-3.406-3.1-3.406-.3,0-.908,3.406t-.607,3.71a5.383,5.383,0,0,0,1.061,1.211,17.127,17.127,0,0,1,2.2,2.8,12.542,12.542,0,0,1,1.817,6.056q0,1.741-14.082,5.148a138.211,138.211,0,0,1-31.619,3.855.849.849,0,0,0-.327-.069q-17.335,0-21.726-5.527-2.5-3.105-1.363-5.98.378-.985-.454-.985-1.287,0-4.239,4.769-4.317,7.116-9.464,7.117a2.544,2.544,0,0,0-.689.09,10.909,10.909,0,0,1-9.3-5.011q-1.589-2.12-2.952-4.24t-3.1-2.12q-2.649,0-6.056,3.559A38.745,38.745,0,0,0,176.3,54.8q-5.451,12.869-9.16,12.869-3.255,0-5.716-3.936a18.564,18.564,0,0,1-2.46-9.994,44.543,44.543,0,0,1,.606-6.812q.454-2.347-.152-2.348-.832-.15-1.741,3.861a42.861,42.861,0,0,0-.909,8.857,19.22,19.22,0,0,0,3.256,10.827q3.255,5.45,7.116,5.449,3.71,0,6.511-5.3Q176,63.051,178.117,57.6q4.542-9.765,9.841-9.766,1.817,0,5.868,5.337,3.922,5.169,9.516,5.327a.825.825,0,0,0,.362.086q6.36,0,9.918-5.9a41.055,41.055,0,0,1,2.8-4.391q3.408,10.9,24.529,10.9a2.555,2.555,0,0,0,.674-.086,124.037,124.037,0,0,0,28.243-3.4Q285.387,52,288.491,48.289q2.65-2.952,2.65-9.462a17.807,17.807,0,0,0-2.8-9.918" fill="#545252"/>
        <path id="Path_612" data-name="Path 612" d="M224.031,80.408l6.36,3.71-3.786,6.813-7.873-4.618,3.71-6.738-6.36-3.71,3.786-6.812,7.873,4.617Z" fill="#545252"/>
        <path id="Path_613" data-name="Path 613" d="M184.66,23.362l6.36,3.71-3.786,6.813-7.873-4.618,3.71-6.738-6.36-3.71,3.786-6.812,7.873,4.617Z" fill="#545252"/>
        <path id="Path_614" data-name="Path 614" d="M30.88,31.671,38.6,36.214,42.387,29.4l-7.873-4.617-3.18,5.677-7.721-4.542-3.786,6.813L27.7,37.349Z" fill="#545252"/>
        <path id="Path_615" data-name="Path 615" d="M67.748,80.954l-7.723-4.543-3.784,6.814,7.873,4.617,3.18-5.677,7.721,4.543L78.8,79.894l-7.873-4.618Z" fill="#545252"/>
        <path id="Path_616" data-name="Path 616" d="M146.1,37.727q-2.348-4.391-5.375-4.39-4.543,0-8.4,6.964h-.454a54.874,54.874,0,0,0-3.71,5.451,17.384,17.384,0,0,1-5.3,4.769q-4.465,2.952-13.777,5a90.483,90.483,0,0,1-21.4,2.644.854.854,0,0,0-.328-.069q-17.335,0-21.726-5.527-2.5-3.1-1.362-5.98.378-.985-.455-.985-1.286,0-4.238,4.769-4.317,7.117-9.464,7.117a2.592,2.592,0,0,0-.69.09,10.909,10.909,0,0,1-9.3-5.011q-1.59-2.119-2.952-4.24t-3.1-2.119q-2.649,0-6.056,3.558a38.737,38.737,0,0,0-7.116,11.507q-5.451,12.87-9.16,12.87-3.255,0-5.716-3.937A18.564,18.564,0,0,1,3.551,60.21,44.43,44.43,0,0,1,4.158,53.4q.453-2.347-.152-2.347-.833-.151-1.741,3.86a42.868,42.868,0,0,0-.909,8.857A19.213,19.213,0,0,0,4.612,74.6q3.254,5.449,7.116,5.449,3.71,0,6.51-5.3,2.347-5.223,4.467-10.673,4.541-9.765,9.84-9.766,1.818,0,5.869,5.337,3.921,5.17,9.516,5.327a.825.825,0,0,0,.362.086q6.36,0,9.918-5.9a40.988,40.988,0,0,1,2.8-4.391q3.408,10.9,24.529,10.9a2.545,2.545,0,0,0,.672-.085,101.481,101.481,0,0,0,19.767-2.185q9.462-1.816,13.627-4.316a21.422,21.422,0,0,0,6.055-4.92q1.212-1.59,4.013-6.057a22.464,22.464,0,0,0,6.964,4.921q4.239,2.043,6.36,2.043,1.287,0,3.369-3.556a13.759,13.759,0,0,0,2.081-6.966,13.58,13.58,0,0,0-2.346-6.813m-8.025,7q-3.407-2.081-3.256-2.535.606-1.212,3.71-1.212,1.212,0,2.763,1.931a8.251,8.251,0,0,1,1.854,3.9q-1.665,0-5.071-2.082" fill="#545252"/>
        <path id="Path_617" data-name="Path 617" d="M47.146,79.626h0q.455.455,0,2.347-.3,1.818-.909,1.817l-.945-1.212a2.617,2.617,0,0,0-2.007-1.211q-2.195,0-3.1,8.138t-1.666,7.986q-.984,0-2.043-3.558a13.467,13.467,0,0,0-4.164-7.04,2.03,2.03,0,0,1-.455.682q-.53.152-2.61-1.022t-2.235-2.082q-.453-4.239,1.591-4.239,3.709-.152,7.873,7.949a33.547,33.547,0,0,0,1.741,3.861q.454-3.861,1.211-7.723,1.21-7.191,3.86-7.04,2.046,0,3.861,2.347" fill="#9f0c1d"/>
        <path id="Path_618" data-name="Path 618" d="M581.529,59.35c-1.553-9.362-3.42-20.159-4.959-28.951a8.764,8.764,0,0,0,1.288-1.489c3.418-4.99,3.382-9.127,2.243-12.233-.785-2.14-3.782-6.542-7.646-11.955A18.38,18.38,0,0,1,571.1,2.584C570.367,1.155,570.663.4,570.43,0L567.3,8.688a.463.463,0,0,0,.152.527c.2.155.513.4.9.693.484,3.159,2.186,14.25,3.373,21.653a28.625,28.625,0,0,1-6.17,2.558.084.084,0,0,0,.037.164,36.568,36.568,0,0,0,6.354-1.354c.3,1.867.559,3.412.734,4.392q5.83,33.537,7.268,47.769,0,.681.379,6.51.152,2.726.682,2.726.907,0,2.2-6.586a33.4,33.4,0,0,0,.757-6.965q0-5.451-2.423-21.425m-3.975-41.742c1.237,1.414,1.743,6.985-1.284,10.359-.034.038-.072.076-.106.114-1.168-6.656-2.094-11.858-2.459-13.9a41.906,41.906,0,0,1,3.849,3.429" fill="#545252"/>
        <path id="Path_619" data-name="Path 619" d="M560.982,38.836c-.459-2.631-1.058-5.813-1.7-9.181a8.984,8.984,0,0,0,.578-.745c3.418-4.99,3.382-9.127,2.243-12.233-.785-2.14-3.782-6.542-7.646-11.955a18.394,18.394,0,0,1-1.36-2.138C552.366,1.155,552.662.4,552.428,0l-3.133,8.688a.464.464,0,0,0,.152.527c.229.176.6.467,1.062.823.753,4.815,2.181,12.6,3.742,21.209a27.907,27.907,0,0,1-6.706,2.872.084.084,0,0,0,.037.164,34.072,34.072,0,0,0,6.936-1.559c.663,3.659,1.342,7.44,2,11.184,3.179,18.269,3.546,20.882,3.646,25.778a11.823,11.823,0,0,1-2.269,7.191Q553.956,82.4,541.844,90.5a117.551,117.551,0,0,1-10.825,6.358q-4.92,2.649-4.845,2.877.15.379,7.115-1.06,12.038-2.5,17.336-6.132,13.551-9.613,13.173-31.265c-.1-6.006-.19-7.509-2.816-22.447m-1.429-21.228c1.155,1.321,1.671,6.266-.732,9.663-.814-4.224-1.666-8.6-2.393-12.492a34.467,34.467,0,0,1,3.125,2.829" fill="#545252"/>
        <path id="Path_620" data-name="Path 620" d="M414.707,59.97c-1.667-10.054-3.567-21.032-5.066-29.58a8.728,8.728,0,0,0,1.278-1.48c3.418-4.99,3.382-9.127,2.243-12.233-.785-2.14-3.782-6.542-7.646-11.955a18.384,18.384,0,0,1-1.359-2.138C403.428,1.155,403.724.4,403.49,0l-3.133,8.688a.463.463,0,0,0,.152.527c.206.159.53.409.925.716.01.059.018.111.025.152.825,5.125,2.213,14.436,3.331,21.471a28.629,28.629,0,0,1-6.183,2.565.084.084,0,0,0,.037.164,36.514,36.514,0,0,0,6.365-1.357c.315,1.955.6,3.681.84,5.014q5.83,33.537,7.269,47.769,0,.681.378,6.51.151,2.726.682,2.726.907,0,2.195-6.586a33.394,33.394,0,0,0,.757-6.964q0-5.452-2.423-21.425m-4.092-42.362c1.237,1.414,1.743,6.985-1.284,10.359l-.1.1c-1.325-7.543-2.248-12.689-2.248-12.689s-.092-.563-.213-1.2a41.838,41.838,0,0,1,3.842,3.424" fill="#545252"/>
        <path id="Path_621" data-name="Path 621" d="M171.5,30.64a8.762,8.762,0,0,0,1.567-1.73c3.418-4.99,3.382-9.127,2.243-12.233-.785-2.14-3.782-6.542-7.646-11.955A18.386,18.386,0,0,1,166.3,2.584C165.572,1.155,165.868.4,165.635,0L162.5,8.688a.464.464,0,0,0,.152.527c.175.135.434.335.749.58,1.1,7.722,2.231,15.968,3.108,22a29.245,29.245,0,0,1-5.759,2.329.084.084,0,0,0,.037.164,38.171,38.171,0,0,0,5.909-1.217c.247,1.677.471,3.145.663,4.331q6.965,39.518,6.965,47.769,0,.909-2.613,2.309a9.958,9.958,0,0,1-4.47,1.4,9.566,9.566,0,0,1-5.559-1.739,4.823,4.823,0,0,1-2.65-4.618,8.439,8.439,0,0,0,0-2.5q-.756-.3-2.5,2.8-.908,2.044-1.969,4.012a5.3,5.3,0,0,1-5,2.2q-4.769-.153-4.769-3.861a12.626,12.626,0,0,1,.606-2.65q.454-1.438,0-1.59-.758-.15-2.347,2.195a38.894,38.894,0,0,1-3.558,4.695,11.931,11.931,0,0,1-8.554,3.406q-4.92,0-5.527-5.147a17.707,17.707,0,0,1,.3-2.954q.151-1.059-.3-1.211-.529-.15-1.741.909-4.314,4.467-5.3,5.451a11.661,11.661,0,0,1-7.873,2.8H110.5q-12.1-.01-14.9-17.791-.152-.907-3.1-26.5a275.58,275.58,0,0,0-5.375-31.643,63.669,63.669,0,0,0-2.877-8.782q-1.514-3.785-1.892-3.784-.228,0-1.363,3.784T80,10.522q6.056,12.265,11.129,63.893Q93.542,98.563,108.6,98.638c.007,0,.012,0,.019,0l.039,0h.037c.025,0,.047,0,.071,0q8-.072,13.253-7.944,0,8.1,7.419,8.1,7.268,0,12.263-8.555a5.705,5.705,0,0,0,1.25,4.43,4.875,4.875,0,0,0,3.974,1.93q6.207,0,9.161-8.025.15,0,.757,1.515a12.166,12.166,0,0,0,1.589,2.8,8.385,8.385,0,0,0,6.836,3.4c.018,0,.034.007.053.007l.045,0,.03,0c.035,0,.067,0,.1-.006q8.7-.1,11.179-9.458a43.844,43.844,0,0,0,1.513-10.37q0-6.513-3.255-25.892c-1.091-5.989-2.271-12.978-3.434-19.929m1.263-13.032c1.237,1.414,1.743,6.985-1.284,10.359-.116.129-.237.258-.361.388-.836-4.995-1.656-9.908-2.424-14.357a44.424,44.424,0,0,1,4.069,3.61" fill="#545252"/>
        <path id="Path_622" data-name="Path 622" d="M205.435,59.97c-1.667-10.054-3.567-21.032-5.066-29.58a8.728,8.728,0,0,0,1.278-1.48c3.418-4.99,3.382-9.127,2.243-12.233-.785-2.14-3.782-6.542-7.646-11.955a18.386,18.386,0,0,1-1.359-2.138C194.156,1.155,194.452.4,194.219,0l-3.134,8.688a.464.464,0,0,0,.152.527c.206.159.53.409.925.716.01.059.018.111.025.152.825,5.125,2.213,14.436,3.331,21.471a28.629,28.629,0,0,1-6.183,2.565.084.084,0,0,0,.037.164,36.514,36.514,0,0,0,6.365-1.357c.315,1.955.6,3.681.84,5.014q5.831,33.537,7.269,47.769,0,.681.378,6.51.151,2.726.682,2.726.907,0,2.195-6.586a33.394,33.394,0,0,0,.757-6.964q0-5.452-2.423-21.425m-4.092-42.362c1.237,1.414,1.743,6.985-1.284,10.359l-.1.1c-1.325-7.543-2.248-12.689-2.248-12.689s-.092-.563-.213-1.2a41.843,41.843,0,0,1,3.842,3.424" fill="#545252"/>
        <path id="Path_623" data-name="Path 623" d="M395.676,51.462c-1.025-5.629-2.5-13.9-3.773-21.058A8.707,8.707,0,0,0,393.2,28.91c3.418-4.99,3.383-9.127,2.243-12.233-.784-2.14-3.781-6.542-7.645-11.955a18.39,18.39,0,0,1-1.36-2.138C385.707,1.155,386,.4,385.769,0l-3.133,8.688a.464.464,0,0,0,.152.527c.237.183.632.488,1.115.864.022.165.04.277.04.277s1.808,12.454,3.125,21.2a28.589,28.589,0,0,1-6.182,2.565.084.084,0,0,0,.036.164,36.568,36.568,0,0,0,6.354-1.354c.335,2.214.627,4.107.831,5.361q6.965,39.518,6.965,47.769,0,.908-2.613,2.308a9.948,9.948,0,0,1-4.47,1.4,9.563,9.563,0,0,1-5.56-1.74,4.82,4.82,0,0,1-2.649-4.617,8.445,8.445,0,0,0,0-2.5q-.758-.3-2.5,2.8-.909,2.046-1.969,4.013a5.292,5.292,0,0,1-5,2.195q-4.769-.151-4.769-3.86a12.612,12.612,0,0,1,.606-2.65q.454-1.438,0-1.591-.758-.15-2.347,2.2a39.048,39.048,0,0,1-3.558,4.694,11.928,11.928,0,0,1-8.554,3.407q-4.92,0-5.527-5.148a17.8,17.8,0,0,1,.3-2.953q.153-1.059-.3-1.211-.529-.15-1.741.908-4.315,4.467-5.3,5.452a11.666,11.666,0,0,1-7.873,2.8h-.015q-5.969-.007-8.918-5.6-1.439-2.65-2.573-9.084-.379-2.422-1.439-10.22C316.29,51.462,312,29.145,307.106,6.586Q305.742,0,304.532,0q-.378,0-1.4,3.558a20.236,20.236,0,0,0-.946,4.012q1.211,5.677,1.513,7.193c5.754,31.694,9.79,53.632,10.446,59.334q.529,4.921-2.2,7.571A30.531,30.531,0,0,1,296.2,89.389H296.2q5.229-5.559,5.381-10.3a10.053,10.053,0,0,0-3.1-7.04q-4.012-3.861-11.279-3.861-10.145,0-22.484,13.475,1.818-3.861,1.817-11.734A166.594,166.594,0,0,0,264.559,47.9c-.792-5.242-1.8-11.547-2.786-17.568a8.7,8.7,0,0,0,1.222-1.427c3.418-4.99,3.382-9.127,2.243-12.233-.785-2.14-3.782-6.542-7.646-11.955a18.384,18.384,0,0,1-1.359-2.138C255.505,1.155,255.8.4,255.567,0l-3.134,8.688a.465.465,0,0,0,.153.527c.222.171.583.451,1.023.793.884,5.677,2.265,13.956,3.507,21.4a28.3,28.3,0,0,1-6.432,2.711.084.084,0,0,0,.036.164,35.347,35.347,0,0,0,6.634-1.451c.676,4.055,1.3,7.786,1.756,10.606q3.86,24.3,3.86,34.369,0,5.451-1.06,7.343-5.3,6.964-5.6,7.418H256.3q-12.027-.009-14.827-17.79-3.179-24.453-4.693-38.306c-1.06-7.368-2.714-16.76-3.32-19.889Q230.354.156,227.476.156q-.909,0-2.574,4.088a18.328,18.328,0,0,0-1.665,6.208q0,.909.454.983.606.076,1.25-1.324t.793-1.4c1.313,0,4.053,12.168,6.576,28.217Q234.658,52.219,237,75.914q2.415,24.146,17.391,24.222c.007,0,.013,0,.02,0h.078a113.845,113.845,0,0,0,15.9-.909c.167-.025.324-.053.49-.079q23.156-.057,33.5-5.522a26.632,26.632,0,0,0,7.8-5.753,25.555,25.555,0,0,0,4.239-8.252q3.012,19.806,12.92,19.906c.009,0,.016,0,.025,0h.077c.024,0,.047,0,.071,0q8-.073,13.252-7.945,0,8.1,7.419,8.1,7.268,0,12.263-8.555a5.707,5.707,0,0,0,1.25,4.43,4.876,4.876,0,0,0,3.973,1.93q6.209,0,9.162-8.025.15,0,.756,1.515a12.2,12.2,0,0,0,1.589,2.8,8.388,8.388,0,0,0,6.837,3.4c.018,0,.034.007.052.007l.045,0,.031,0c.035,0,.067-.005.1-.007q8.7-.095,11.179-9.457a43.844,43.844,0,0,0,1.513-10.371q0-6.511-3.256-25.891m-4.183-23.37c-1.227-6.913-2.175-12.286-2.175-12.286l-.3-1.651a42.262,42.262,0,0,1,3.878,3.453c1.236,1.414,1.742,6.985-1.285,10.359-.037.042-.078.084-.116.125m-128.8-10.484c1.237,1.414,1.743,6.985-1.284,10.359l-.018.02c-.846-5.165-1.644-9.976-2.229-13.547a38.576,38.576,0,0,1,3.531,3.168m-3.431,74.81q13.93-16.882,25.588-16.73a16.878,16.878,0,0,1,8.366,2.535q3.9,2.385,3.6,4.581-.227,1.968-13.248,5.752-13.929,3.862-24.3,3.862" fill="#545252"/>
        <path id="Path_624" data-name="Path 624" d="M554.79,66.315q-1.893-8.856-10.22-18.546-.454-.53-16.958-18.7c-1.279-1.4-2.539-2.843-3.748-4.257,1.131-5.764-.471-9.495-2.682-11.887-1.547-1.673-6.006-4.585-11.654-8.1a18.218,18.218,0,0,1-2.077-1.451c-1.222-1.038-1.239-1.848-1.608-2.129l.447,9.226a.465.465,0,0,0,.343.428l.9.241A114.463,114.463,0,0,0,520,28.737a26.976,26.976,0,0,1-5.545,5.886.084.084,0,0,0,.1.138,30.686,30.686,0,0,0,6.5-4.781q1.347,1.578,2.777,3.178l17.411,18.774a64.305,64.305,0,0,1,11.053,16.2q.379.985,1.439,5,.756,3.029,1.286,3.028,1.893,0-.226-9.842m-35.6-51.55c1.457.718,3.6,4.512,3.187,8.291-3.729-4.449-6.763-8.394-7.938-9.941a40.785,40.785,0,0,1,4.751,1.65" fill="#545252"/>
        <path id="Path_625" data-name="Path 625" d="M572.171,90.165h0q.15.227-.493,1.93a7.261,7.261,0,0,1-.794,1.779q-8.025,2.574-11.2,5.527-.909.907-.909-.152a4.752,4.752,0,0,1,3.028-4.391,4.39,4.39,0,0,1-2.271-4.239q0-6.284,6.511-6.284,2.875,0,2.876,2.65,0,2.726-1.967,2.8a2.449,2.449,0,0,0-2.726-2.2q-2.5,0-2.5,1.817,0,2.952,5,2.952a19.556,19.556,0,0,0,4.315-1.893q.984-.53,1.136-.3" fill="#545252"/>
        <path id="Path_626" data-name="Path 626" d="M512.766,58.822l7.647,4.467,3.784-6.814-7.873-4.617-3.18,5.753L505.5,53.144l-3.786,6.813,7.875,4.619Z" fill="#545252"/>
        <path id="Path_627" data-name="Path 627" d="M515.794,45.952l-7.873-4.617-3.784,6.812,7.873,4.619Z" fill="#545252"/>
        <path id="Path_628" data-name="Path 628" d="M532.9,75.476q-.683-2.043-.984-2.043t-1.552,3.1a17.383,17.383,0,0,0-1.25,3.709,2.89,2.89,0,0,0,.8,1.515,3.131,3.131,0,0,1,.8,1.967q0,1.665-3.408,1.665a7.089,7.089,0,0,1-5.45-2.195,4.69,4.69,0,0,1-1.212-4.919q.606-1.893.454-2.045-.756-.6-2.043,1.286a16.617,16.617,0,0,0-1.515,3.559q-3.1,7.872-9.764,7.873-6.814,0-6.814-5.072a9,9,0,0,1,1.06-3.784q.3-.759-.152-.909-.3-.151-1.211.605a13.006,13.006,0,0,0-1.893,2.045q-5.768,8.061-11.422,9.136a43.029,43.029,0,0,1-11.071.013q-10.626-1.132-13.238-17.7-3.178-24.453-4.693-38.306-1.59-11.052-2.5-15.746Q452.735,2.8,449.858,2.8q-.909,0-2.574,4.089a18.319,18.319,0,0,0-1.665,6.207q0,.909.454.983.606.076,1.25-1.324t.793-1.4q1.969,0,5.754,24.073,2.348,15.292,4.7,38.987c1.3,13.049,7.149,21.447,14.267,23.693a.161.161,0,0,0,.019.009c.027.009.058.015.085.024q.358.109.721.2l.1.024c.19.045.38.085.572.122,4.515.922,11.3.557,14.187-.881.012-.006.019-.017.03-.024a15.968,15.968,0,0,0,4.921-3.331,68.837,68.837,0,0,0,4.543-5.9,7.97,7.97,0,0,0,2.232,5.98,7.607,7.607,0,0,0,5.792,2.573,11.988,11.988,0,0,0,9.614-6.207q1.891-3.558,2.2-4.239.909,6.888,7.721,6.888,7.949,0,7.949-13.1a19.05,19.05,0,0,0-.6-4.769" fill="#545252"/>
        <path id="Path_629" data-name="Path 629" d="M275.266,10.592l7.873,4.617-3.785,6.814L271.48,17.4Z" fill="#545252"/>
        <path id="Path_630" data-name="Path 630" d="M34.1,12.643h0q0-.3-2.233-1.93A19.534,19.534,0,0,0,29.48,9.085q-.3,0-.871,1.552a7.65,7.65,0,0,0-.568,2.158,1.539,1.539,0,0,0,1.741,1.74,8.038,8.038,0,0,0,2.537-.719Q34.1,13.1,34.1,12.643M35.99,11.13h0q0,7.266-6.51,7.266-3.256,0-3.256-4.013a15.506,15.506,0,0,1,2.952-8.856q.757-2.5,1.212-2.5t.151.605a5.322,5.322,0,0,0-.454,1.893q5.9,3.556,5.905,5.6" fill="#9f0c1d"/>
      </g>
    </g>
  </g>
</svg>
