<svg xmlns="http://www.w3.org/2000/svg" xmlns:xlink="http://www.w3.org/1999/xlink" width="469.93" height="80.88" viewBox="0 0 469.93 80.88">
  <defs>
    <clipPath id="clip-path">
      <rect id="Rectangle_145" data-name="Rectangle 145" width="469.93" height="80.88" transform="translate(0 0)" fill="none"/>
    </clipPath>
  </defs>
  <g id="Group_199" data-name="Group 199" transform="translate(0 0)">
    <g id="Group_198" data-name="Group 198" clip-path="url(#clip-path)">
      <path id="Path_631" data-name="Path 631" d="M465.108,5.47h0q.244.366-.3,1.559a3.566,3.566,0,0,1-.794,1.312l-15.517,5.743a113.7,113.7,0,0,0-14.3,6.292,3.519,3.519,0,0,1,0-1.893,2.864,2.864,0,0,1,.612-1.528,295.251,295.251,0,0,1,30.3-11.485" fill="#9f0c1d"/>
      <path id="Path_632" data-name="Path 632" d="M426.1,18.641h0q.366,0,.123,1.772a7.5,7.5,0,0,1-.612,2.26,2.536,2.536,0,0,1-1.893,1.221,1.408,1.408,0,0,1-1.466-.61,9.126,9.126,0,0,1-1.284-5.987,84.729,84.729,0,0,1,1.894-8.919,4.133,4.133,0,0,1,.611-1.344q.917-1.4.917-.427a5.177,5.177,0,0,1-.428,1.527,41.894,41.894,0,0,0-1.588,9.407,5.2,5.2,0,0,0,.611,2.994,1.057,1.057,0,0,0,.854.488q1.284,0,1.772-1.771.123-.611.489-.611" fill="#9f0c1d"/>
      <path id="Path_633" data-name="Path 633" d="M465.173,74.723h0A11.454,11.454,0,0,1,456.131,79q-5.253,0-5.253-3.359a8.661,8.661,0,0,1,2.5-5.926q.368-.367,4.4-3.6a12.338,12.338,0,0,0-2.871-.366,6.674,6.674,0,0,0-3.665.733q-.366.366-.611.245-.244-.246,0-.612a4.9,4.9,0,0,1,2.138-2.871,8.084,8.084,0,0,1,3.483-.488q3.787,0,3.787,1.221,0,2.994-4.032,5.986-3.6,2.5-3.605,4.155,0,.733,1.375,1.435a5.724,5.724,0,0,0,2.6.7,15.514,15.514,0,0,0,8.125-2.017q.674-.368.917-.244.366.123-.244.733" fill="#9f0c1d"/>
      <path id="Path_634" data-name="Path 634" d="M372.38,28.989h0q0-.245-1.8-1.558a15.87,15.87,0,0,0-1.924-1.313q-.246,0-.7,1.252a6.187,6.187,0,0,0-.457,1.742,1.242,1.242,0,0,0,1.4,1.405,6.5,6.5,0,0,0,2.046-.581q1.436-.581,1.435-.947m1.528-1.221h0q0,5.864-5.253,5.864-2.628,0-2.628-3.238a12.519,12.519,0,0,1,2.382-7.148q.612-2.015.979-2.015c.244,0,.285.163.121.489a4.3,4.3,0,0,0-.366,1.526q4.764,2.872,4.765,4.522" fill="#9f0c1d"/>
      <path id="Path_635" data-name="Path 635" d="M365.3,5.77h0q.366.366,0,1.894-.244,1.467-.733,1.466l-.763-.978a2.111,2.111,0,0,0-1.619-.977q-1.771,0-2.505,6.567t-1.344,6.445q-.794,0-1.649-2.872a10.865,10.865,0,0,0-3.36-5.681,1.624,1.624,0,0,1-.367.55q-.428.123-2.107-.824t-1.8-1.68q-.366-3.422,1.284-3.421,2.992-.123,6.353,6.415a27.215,27.215,0,0,0,1.4,3.115q.367-3.115.977-6.232.978-5.8,3.116-5.681A4.045,4.045,0,0,1,365.3,5.77" fill="#9f0c1d"/>
      <path id="Path_636" data-name="Path 636" d="M382.5,14.543h0q.366,0,.123,1.772a7.5,7.5,0,0,1-.612,2.26,2.536,2.536,0,0,1-1.893,1.221,1.408,1.408,0,0,1-1.466-.61,9.127,9.127,0,0,1-1.284-5.987,84.723,84.723,0,0,1,1.894-8.919,4.133,4.133,0,0,1,.611-1.344q.916-1.4.917-.427a5.177,5.177,0,0,1-.428,1.527,41.894,41.894,0,0,0-1.588,9.407,5.2,5.2,0,0,0,.611,2.994,1.057,1.057,0,0,0,.854.488q1.284,0,1.772-1.771.123-.611.489-.611" fill="#9f0c1d"/>
      <path id="Path_637" data-name="Path 637" d="M311.314,23.251h0q.244.366-.3,1.559a3.566,3.566,0,0,1-.794,1.312L294.7,31.865A113.7,113.7,0,0,0,280.4,38.157a3.518,3.518,0,0,1,0-1.893,2.863,2.863,0,0,1,.612-1.528,295.248,295.248,0,0,1,30.3-11.485" fill="#9f0c1d"/>
      <path id="Path_638" data-name="Path 638" d="M292.836,16.912h0q.366,0,.123,1.772a7.5,7.5,0,0,1-.612,2.26,2.536,2.536,0,0,1-1.893,1.221,1.408,1.408,0,0,1-1.466-.61,9.126,9.126,0,0,1-1.284-5.987A84.729,84.729,0,0,1,289.6,6.649a4.132,4.132,0,0,1,.611-1.344q.916-1.4.917-.427a5.177,5.177,0,0,1-.428,1.527,41.894,41.894,0,0,0-1.588,9.407,5.2,5.2,0,0,0,.611,2.994,1.057,1.057,0,0,0,.854.488q1.284,0,1.772-1.771.123-.611.489-.611" fill="#9f0c1d"/>
      <path id="Path_639" data-name="Path 639" d="M310.473,51.659h0q.366,0,.123,1.772a7.5,7.5,0,0,1-.612,2.26,2.536,2.536,0,0,1-1.893,1.221,1.408,1.408,0,0,1-1.466-.61,9.127,9.127,0,0,1-1.284-5.987,84.729,84.729,0,0,1,1.894-8.919,4.133,4.133,0,0,1,.611-1.344q.916-1.4.917-.427a5.177,5.177,0,0,1-.428,1.527,41.894,41.894,0,0,0-1.588,9.407,5.2,5.2,0,0,0,.611,2.994,1.057,1.057,0,0,0,.854.488q1.284,0,1.772-1.771.123-.611.489-.611" fill="#9f0c1d"/>
      <path id="Path_640" data-name="Path 640" d="M250.485,74.634h0a13.445,13.445,0,0,1-10.385,4.4q-4.521-.123-4.521-2.994a9.633,9.633,0,0,1,1.4-4.031,9.241,9.241,0,0,1,2.872-3.727q-2.5-1.648-2.505-3.177,0-1.222,1.924-3.359t3.574-2.138q1.405,0,1.4,1.893a4.193,4.193,0,0,1-.4,1.313q-.4.948-.764.948a.794.794,0,0,1-.366-.49.972.972,0,0,0-.977-.794,2.9,2.9,0,0,0-1.284.519q-.855.521-.854,1.009,0,1.65,3.481,1.65a4.628,4.628,0,0,0,2.261-1.161A2.141,2.141,0,0,1,247,63.761q.367,0-.122,2.015a3.151,3.151,0,0,1-1.283.977,16.181,16.181,0,0,0-5.009,3.238q-3.116,2.628-3.116,4.032,0,1.833,4.277,1.833a21.45,21.45,0,0,0,8.124-1.955,1.532,1.532,0,0,1,.978-.122q.243.245-.367.855" fill="#9f0c1d"/>
      <path id="Path_641" data-name="Path 641" d="M217.3,65.5h0q.366.366,0,1.894-.245,1.467-.733,1.466l-.763-.978a2.111,2.111,0,0,0-1.619-.977q-1.771,0-2.505,6.567t-1.344,6.445q-.793,0-1.649-2.872a10.868,10.868,0,0,0-3.36-5.681,1.624,1.624,0,0,1-.367.55q-.428.123-2.107-.824t-1.8-1.68q-.367-3.422,1.283-3.421,2.992-.123,6.353,6.415a27.213,27.213,0,0,0,1.4,3.115q.368-3.116.977-6.232.978-5.8,3.116-5.681A4.045,4.045,0,0,1,217.3,65.5" fill="#9f0c1d"/>
      <path id="Path_642" data-name="Path 642" d="M174.732.467h0q.245.366-.3,1.559a3.585,3.585,0,0,1-.793,1.312L158.116,9.081a113.7,113.7,0,0,0-14.295,6.292,3.519,3.519,0,0,1,0-1.893,2.864,2.864,0,0,1,.612-1.528A295.251,295.251,0,0,1,174.732.467" fill="#9f0c1d"/>
      <path id="Path_643" data-name="Path 643" d="M247.458,13.839h0q-3.238,1.527-10.019,2.016c-.326,0-.53-.082-.61-.244a.5.5,0,0,1,.243-.612q4.4-1.893,11.363-5.254-.977-.915-6.109-1.282a31.809,31.809,0,0,0-6.109-.123,1.271,1.271,0,0,1-.795,0q-.243-.122.123-.61a48.867,48.867,0,0,1,4.276-5.62q4.887-1.038,12.524,1.221a2.112,2.112,0,0,1,1.833,2.138q0,1.772-2.536,4.7a14.085,14.085,0,0,1-4.184,3.666" fill="#9f0c1d"/>
      <path id="Path_644" data-name="Path 644" d="M172.986,72.9h0q.366,0,.123,1.772a7.5,7.5,0,0,1-.612,2.26,2.536,2.536,0,0,1-1.893,1.221,1.408,1.408,0,0,1-1.466-.61,9.127,9.127,0,0,1-1.284-5.987,84.73,84.73,0,0,1,1.894-8.919,4.133,4.133,0,0,1,.611-1.344q.917-1.4.917-.427a5.178,5.178,0,0,1-.428,1.527A41.894,41.894,0,0,0,169.26,71.8a5.2,5.2,0,0,0,.611,2.994,1.057,1.057,0,0,0,.854.488q1.284,0,1.772-1.771.123-.61.489-.611" fill="#9f0c1d"/>
      <path id="Path_645" data-name="Path 645" d="M94.641,15.459h0q.245.366-.305,1.559a3.585,3.585,0,0,1-.793,1.312L78.025,24.073a113.566,113.566,0,0,0-14.3,6.292,3.518,3.518,0,0,1,0-1.893,2.864,2.864,0,0,1,.612-1.528,295.25,295.25,0,0,1,30.3-11.485" fill="#9f0c1d"/>
      <path id="Path_646" data-name="Path 646" d="M110.51,28.785h0q-1.589,5.864-5.253,5.864a3.349,3.349,0,0,1-2.994-1.466,13.483,13.483,0,0,1-2.138-7.269,39.346,39.346,0,0,1,1.038-7.637,77.86,77.86,0,0,1,3.971-13.5q1.161-2.748,1.772-2.749.243.123.243.611a9.09,9.09,0,0,1-.61,2.627A140.587,140.587,0,0,0,103,18.889q-.978,5.619.55,8.491a3.091,3.091,0,0,0,2.87,2.016,2.317,2.317,0,0,0,1.833-.856,14.272,14.272,0,0,0,1.4-2.016q.489-1.1.733-1.1,1.161,0,.123,3.36" fill="#9f0c1d"/>
      <path id="Path_647" data-name="Path 647" d="M18.369,46.232h0Q16.78,52.1,13.116,52.1a3.349,3.349,0,0,1-2.994-1.466,13.484,13.484,0,0,1-2.138-7.269,39.346,39.346,0,0,1,1.038-7.637,77.86,77.86,0,0,1,3.971-13.5q1.161-2.748,1.772-2.749.243.123.243.611a9.09,9.09,0,0,1-.61,2.627,140.59,140.59,0,0,0-3.543,13.624q-.978,5.619.55,8.491a3.091,3.091,0,0,0,2.87,2.016,2.317,2.317,0,0,0,1.833-.856,14.272,14.272,0,0,0,1.405-2.016q.489-1.1.733-1.1,1.161,0,.123,3.36" fill="#9f0c1d"/>
      <path id="Path_648" data-name="Path 648" d="M30.747,18.3,37.1,22.026l-3.055,5.5L27.692,23.8Z" fill="#545252"/>
      <path id="Path_649" data-name="Path 649" d="M21.488,2.344h0q.366.366,0,1.894-.245,1.467-.733,1.466l-.763-.978a2.111,2.111,0,0,0-1.619-.977q-1.771,0-2.5,6.567t-1.344,6.445q-.794,0-1.649-2.872a10.868,10.868,0,0,0-3.36-5.681,1.624,1.624,0,0,1-.367.55q-.427.123-2.107-.824t-1.8-1.68Q4.872,2.832,6.522,2.833q2.993-.123,6.353,6.415a27.211,27.211,0,0,0,1.4,3.115q.367-3.115.977-6.232Q16.235.329,18.373.45a4.045,4.045,0,0,1,3.115,1.894" fill="#9f0c1d"/>
      <path id="Path_650" data-name="Path 650" d="M79.795,5.847h0q.366.366,0,1.894-.244,1.467-.733,1.466L78.3,8.229a2.111,2.111,0,0,0-1.619-.977q-1.771,0-2.5,6.567t-1.344,6.445q-.793,0-1.649-2.872a10.864,10.864,0,0,0-3.36-5.681,1.624,1.624,0,0,1-.367.55q-.428.123-2.107-.824t-1.8-1.68q-.368-3.422,1.283-3.421,2.992-.123,6.353,6.415a27.211,27.211,0,0,0,1.4,3.115q.368-3.116.977-6.232.978-5.8,3.116-5.681a4.045,4.045,0,0,1,3.115,1.894" fill="#9f0c1d"/>
      <path id="Path_651" data-name="Path 651" d="M51.833,75.834h0a9.732,9.732,0,0,1-7.683,3.634q-4.466,0-4.465-2.855a7.359,7.359,0,0,1,2.129-5.036q.312-.312,3.737-3.063a10.507,10.507,0,0,0-2.44-.311A5.664,5.664,0,0,0,40,68.826c-.208.207-.381.277-.52.208q-.207-.208,0-.52a4.166,4.166,0,0,1,1.817-2.44,6.891,6.891,0,0,1,2.96-.414q3.217,0,3.218,1.037,0,2.544-3.427,5.087-3.063,2.129-3.063,3.531,0,.624,1.169,1.22a4.867,4.867,0,0,0,2.206.6,13.171,13.171,0,0,0,6.9-1.714q.571-.311.779-.207.312.1-.207.623" fill="#9f0c1d"/>
      <path id="Path_652" data-name="Path 652" d="M69.795,61.8h0q.366,0,.123,1.772a7.5,7.5,0,0,1-.612,2.26,2.536,2.536,0,0,1-1.893,1.221,1.408,1.408,0,0,1-1.466-.61,9.127,9.127,0,0,1-1.284-5.987,84.73,84.73,0,0,1,1.894-8.919,4.133,4.133,0,0,1,.611-1.344q.917-1.4.917-.427a5.177,5.177,0,0,1-.428,1.527A41.894,41.894,0,0,0,66.069,60.7a5.2,5.2,0,0,0,.611,2.994,1.057,1.057,0,0,0,.854.488q1.284,0,1.772-1.771.123-.61.489-.611" fill="#9f0c1d"/>
      <path id="Path_653" data-name="Path 653" d="M115.944,43.517h0q.366.366,0,1.894-.245,1.467-.733,1.466l-.763-.978a2.111,2.111,0,0,0-1.619-.977q-1.771,0-2.505,6.567t-1.344,6.445q-.794,0-1.649-2.872a10.864,10.864,0,0,0-3.36-5.681,1.624,1.624,0,0,1-.367.55q-.427.123-2.107-.824t-1.8-1.68q-.368-3.421,1.283-3.421,2.993-.123,6.353,6.415a27.21,27.21,0,0,0,1.4,3.115q.368-3.115.977-6.232.978-5.8,3.116-5.681a4.045,4.045,0,0,1,3.115,1.894" fill="#9f0c1d"/>
      <path id="Path_654" data-name="Path 654" d="M469.895,52.614a22.191,22.191,0,0,0-3.788,0,170.13,170.13,0,0,1-30.483-2.627q-3.211-.511-5.355-.811,6.165-5.4,19.038-10.8.733.978,1.223.977.366,0,.244-1.588,5.925-2.26,8.43-3.3a11.6,11.6,0,0,0,1.375-2.689,11.705,11.705,0,0,0,1.129-3.3q0-.732-4.52-3.97-4.643-3.3-6.537-3.3-6.6,0-6.6,8.43a6.711,6.711,0,0,0,2.138,4.581q-15.879,7.269-20.036,14.536l-.062,0q-2.871,4.643-2.871,5.621,0,.61,23.886,2.992-4.155,2.018-8.37,3.91-6.311,2.654-9.65,2.737a.683.683,0,0,0-.247-.048q-6.6,0-9.651-5.193-1.956-3.422-3.117-11.3c-3.135-21.137-4.189-28.94-6.592-39.2q-1.895-8-2.384-8-.426,0-1.068,2.932a13.474,13.474,0,0,0-.519,3.482q.489,2.078.855,3.971c3.462,18.693,4.578,27.861,6.777,43.3q.366,2.626-3.36,5.62a79.816,79.816,0,0,1-14.6,9.224q-10.446,5.316-16.739,5.315-14.967,0-14.967-14.539a38.3,38.3,0,0,1,1.467-9.9,6.919,6.919,0,0,0,.3-1.711q0-.978-.549-.489a4.876,4.876,0,0,0-1.161,1.894,35.552,35.552,0,0,0-2.872,13.868q0,7.635,3.482,12.217,4.032,5.254,11.975,5.255,8,0,19.12-6.048a79.146,79.146,0,0,0,15.09-10.57,11.9,11.9,0,0,0,3.97-7.758q2.383,13.744,13.074,13.745a2.022,2.022,0,0,0,.6-.09q4.593-.219,11.247-3.453,10.386-5.009,12.645-5.926a48.905,48.905,0,0,1,15.028-2.2q.244,0,1.742-2.719t1.252-3.084M445.948,28.728q0-1.223,2.626-1.222,1.711,0,6.476,3.115-2.992,1.1-5.987,2.383-2.994-3.666-3.115-4.276" fill="#545252"/>
      <path id="Path_655" data-name="Path 655" d="M395.85,45.239q-5.256,0-15.273-3.422-14.356-5.009-18.51-5.009a9.826,9.826,0,0,0-7.27,2.75,10.776,10.776,0,0,0-2.871,7.881,15.863,15.863,0,0,0,1.283,5.13q.51,1.438.879,2.673-4.983-2.322-5.95-9.759c-.035-.28-.069-.544-.1-.8q-.258-2.727-.738-6.237c-.237-2.087-.412-3.367-1.383-9.079l0-.012c-.126-.738-.263-1.542-.417-2.44q-2.505-14.3-4.7-22.481-1.1-4.155-1.65-4.154-.306,0-.886,3.268t-.581,3.818c1.263,6.8,2.57,13.615,3.789,20.466q.314,1.766.592,3.346c2.207,12.933,3.262,21.274,3.337,24.936a9.54,9.54,0,0,1-1.832,5.8q-3.176,4.461-12.951,11a94.416,94.416,0,0,1-8.735,5.131q-3.972,2.139-3.91,2.322.121.306,5.741-.856,9.714-2.015,13.99-4.948,8.576-6.084,10.227-18.153a10.289,10.289,0,0,0,7.292,5.691c.023.236.045.474.07.734q.121,1.771.672,1.772.61,0,.854-2.26c.032,0,1.409,0,1.874-.055,4.878-.59,10.945-2.338,18.775-5.81q12.156-5.619,14.112-5.62a3.21,3.21,0,0,1,.825.123,3.185,3.185,0,0,0,.58.121q.367,0,1.741-2.932t1.131-2.932M359.694,56.348a14.854,14.854,0,0,1-3.012-.3c-.16-1.232-.32-2.291-.48-3.17a35.649,35.649,0,0,0-1.283-4.765,18.5,18.5,0,0,1-.855-2.5q0-.672,1.894-1.65a11.615,11.615,0,0,1,5.376-1.222q3.358,0,10.873,2.5,5.133,1.71,10.386,3.605c-10.8,4.917-18.423,7.519-22.9,7.5" fill="#545252"/>
      <path id="Path_656" data-name="Path 656" d="M292.44,47.837h0q-1.71-2.384-3.787-2.384a3.344,3.344,0,0,0-1.68.519q-.887.521-.886.948,0,.671,1.1.977a13.246,13.246,0,0,0,5.253-.06m6.964,5.5h0q0,5.8-2.107,9.011t-9.256,8.766q-11.911,9.347-19.975,9.347-6.72,0-9.591-5.742a16.794,16.794,0,0,1-1.65-7.392,33.761,33.761,0,0,1,2.443-12.768q1.346-3.3,2.078-3.3c.081.041.122.184.122.428a12.54,12.54,0,0,1-.733,3.054,26.536,26.536,0,0,0-1.527,8.309A12.08,12.08,0,0,0,261.59,70.5a9.538,9.538,0,0,0,8.064,3.787q6.231,0,18.387-8.858,9.287-6.781,9.286-8.064,0-2.81-7.086-2.871-8.064-.123-8.064-5.987a9.2,9.2,0,0,1,2.628-6.353q2.443-2.688,5.069-2.688,2.994,0,6.048,3.6A15.741,15.741,0,0,1,299.4,53.334" fill="#545252"/>
      <path id="Path_657" data-name="Path 657" d="M160.779,20.819l-6.353-3.726-3.054,5.5,6.353,3.727Z" fill="#545252"/>
      <path id="Path_658" data-name="Path 658" d="M180.6,12.511l6.231,3.666,3.055-5.5-6.355-3.726-2.564,4.582-6.232-3.666-3.054,5.5,6.353,3.726Z" fill="#545252"/>
      <path id="Path_659" data-name="Path 659" d="M273.875,34.747q-.489-.366-7.514,2.443-10.263,4.094-14.05,4.094-4.276,0-8.278-4.46t-4-8.614q0-.978,4.7-2.321a36.662,36.662,0,0,1,10.386-1.527,15.081,15.081,0,0,1,6.17,1.1q1.893.856,2.2.367.426-.672-2.261-2.382-5.986-3.972-11.18-3.971-5.986,0-10.384,5.192Q236,29.065,236,33.159q0,2.932,2.626,7.025a17.224,17.224,0,0,0,4.522,5.071,116.161,116.161,0,0,1-39.3,7.076q-10.2-.372-15.33-2.8-8-3.787-9.9-14.416-1.589-8.37-3.361-8.369-.61,0-1.771,4.643-1.221,6.229-6.353,6.23a2.1,2.1,0,0,0-.6.087,4.628,4.628,0,0,1-3.306-2.286,15.668,15.668,0,0,0-1.649-2.322q-.243,0-.671,2.689t-.428,3.176a10.346,10.346,0,0,0,.855,1.528,24.431,24.431,0,0,1,1.893,3.115q2.628,6.11,1.4,7.758-1.648,2.262-10.262,7.515A212.842,212.842,0,0,1,135.306,68.9q-7.392,3.36-19.976,8.125-7.149,2.628-7.148,2.993c0,.082.163.122.489.122q1.1,0,7.514-.977,15.639-2.5,15.761-2.627,5.865-1.893,17.655-8.8,11.241-6.6,13.378-9.1a14.745,14.745,0,0,0,2.872-4.522q.963-2.71.976-10.416a7.972,7.972,0,0,0,4-1.8,8.451,8.451,0,0,0,2.933-4.887q.642-2.994.886-2.994.366,0,.733,2.138,1.161,4.827,1.649,7.209,2.994,9.653,11.729,12.89a42.766,42.766,0,0,0,12.207,2.015.639.639,0,0,0,.457.183c1.046,0,2.119-.028,3.205-.07.506.006,1.018.01,1.542.01a2.087,2.087,0,0,0,.73-.127q15.308-.979,35.576-7.266,4.337-1.342,15.455-5.436,10.691-3.909,11.087-4.185a28.815,28.815,0,0,0,2.719-3.39q2.322-3.115,2.138-3.238" fill="#545252"/>
      <path id="Path_660" data-name="Path 660" d="M117.012,10.077l6.354,3.727-3.054,5.5-6.354-3.726Zm14.173,38.059h0a16.93,16.93,0,0,1-4.154,11.18q-2.137,2.443-13.378,9.1-11.79,6.9-17.656,8.8-.182.062-15.821,2.628-6.292,1.038-7.453,1.038-.489,0-.489-.122,0-.429,7.147-3.116Q91.966,73,99.419,69.579A176.426,176.426,0,0,0,119.762,58.7q9.164-5.68,9.163-7.147,0-.306-4.032-8.369a40.3,40.3,0,0,1-3.115-7.82.939.939,0,0,1-.611-.855,25.775,25.775,0,0,1,.488-3.3q.551-2.932.917-2.933a14.022,14.022,0,0,1,2.138,2.138q4.766,5.255,4.4,5.62-.3.306-3.054-.916a36.087,36.087,0,0,0,2.81,5.864q2.32,4.338,2.321,7.148" fill="#545252"/>
      <path id="Path_661" data-name="Path 661" d="M89.546,47.934h0q-1.71-2.383-3.787-2.384a3.341,3.341,0,0,0-1.68.519q-.887.521-.886.948,0,.671,1.1.977a13.246,13.246,0,0,0,5.253-.06m6.964,5.5h0q0,5.8-2.107,9.011t-9.256,8.766q-11.912,9.347-19.975,9.347-6.72,0-9.591-5.742a16.794,16.794,0,0,1-1.65-7.392,33.761,33.761,0,0,1,2.443-12.768q1.345-3.3,2.078-3.3c.081.041.122.184.122.428a12.541,12.541,0,0,1-.733,3.054,26.536,26.536,0,0,0-1.527,8.309A12.08,12.08,0,0,0,58.7,70.6a9.538,9.538,0,0,0,8.064,3.787q6.231,0,18.387-8.858,9.286-6.781,9.286-8.064,0-2.81-7.086-2.871-8.064-.123-8.064-5.987a9.2,9.2,0,0,1,2.628-6.353q2.443-2.688,5.069-2.688,2.994,0,6.048,3.6A15.741,15.741,0,0,1,96.51,53.431" fill="#545252"/>
      <path id="Path_662" data-name="Path 662" d="M82.287,37.056a22.19,22.19,0,0,0-3.788,0,165.714,165.714,0,0,1-28.388-2.289,15.973,15.973,0,0,0,5.479-3.82,11.68,11.68,0,0,0,2.445-7.637,17.354,17.354,0,0,0-4.094-10.75q-3.482-4.523-6.9-4.522-2.625,0-5.008,2.871A10.928,10.928,0,0,0,39.4,18.057q0,5.5,5.5,5.5-.246,0,4.52-.367h1.526q5.01,0,5.01,2.626,0,1.894-7.147,4.276Q43.685,31.557,38.56,33.2c-.025,0-.054,0-.074,0q-2.871,4.642-2.871,5.621,0,.611,23.886,2.993-4.155,2.016-8.37,3.909-6.5,2.735-9.859,2.747a6.5,6.5,0,0,1-4.253-1.647,6.807,6.807,0,0,1-1.344-2.015q-.733-1.467-1.038-1.467-.245,0-.733,2.749a32,32,0,0,0-.488,3.238q0-.367,2.2,4.062t2.2,7.056q0,1.773-9.652,8.308-8.736,5.865-15.394,5.865-10.385,0-10.385-10.019A24.839,24.839,0,0,1,3.664,57.46a20.11,20.11,0,0,0,.856-3.482q-.611-.367-1.528,1.1A28.746,28.746,0,0,0,0,68.64Q0,80.856,11.545,80.857q5.987,0,14.723-5.254Q34.76,70.595,37.936,65.34a15.088,15.088,0,0,0,1.558-5.223,19.545,19.545,0,0,0,.275-5.65c.051,0,.1-.006.149-.01q4.713-.072,11.7-3.473,10.386-5.009,12.645-5.926a48.9,48.9,0,0,1,15.028-2.2q.245,0,1.742-2.719t1.252-3.084m-39.1-20.648q0-1.833,2.871-1.833,2.139,0,3.971,2.382-6.841,1.222-6.842-.549" fill="#545252"/>
      <path id="Path_663" data-name="Path 663" d="M43.251,4.193,36.9.467l-3.055,5.5L40.2,9.692Z" fill="#545252"/>
      <path id="Path_664" data-name="Path 664" d="M354.979,71.526l6.353,3.727-3.054,5.5-6.353-3.725Z" fill="#545252"/>
      <path id="Path_665" data-name="Path 665" d="M400.2,59.86h0q.123.185-.4,1.559a5.854,5.854,0,0,1-.641,1.435q-6.477,2.076-9.041,4.459-.733.733-.733-.121a3.833,3.833,0,0,1,2.443-3.544A3.543,3.543,0,0,1,390,60.227q0-5.07,5.254-5.07,2.322,0,2.322,2.138,0,2.2-1.589,2.26a1.975,1.975,0,0,0-2.2-1.772q-2.016,0-2.016,1.466,0,2.384,4.032,2.383a15.793,15.793,0,0,0,3.482-1.527q.795-.427.916-.245" fill="#9f0c1d"/>
      <path id="Path_666" data-name="Path 666" d="M398.988,24.03a7.134,7.134,0,0,0,.551-.7c2.758-4.026,2.729-7.365,1.81-9.872-.633-1.726-3.051-5.279-6.17-9.647a14.773,14.773,0,0,1-1.1-1.725A7.793,7.793,0,0,1,393.545,0l-2.529,7.011a.375.375,0,0,0,.123.425c.256.2.73.564,1.317,1.023q.759,5.663,2.673,16.685a22.37,22.37,0,0,1-5.525,2.388.068.068,0,0,0,.029.133,27.081,27.081,0,0,0,5.709-1.3c.092.529.186,1.064.282,1.61q2.32,13.257,3.115,20.587.244,2.567.428,5.133t.611,2.566q.732,0,1.282-2.933a39.3,39.3,0,0,0,.672-7.758q0-5.376-2.016-17.289c-.24-1.421-.485-2.836-.728-4.254m.306-9.821c.94,1.075,1.355,5.124-.641,7.867q-.867-5.032-1.755-10.045a26.574,26.574,0,0,1,2.4,2.178" fill="#545252"/>
      <path id="Path_667" data-name="Path 667" d="M277.3,24.624a7.016,7.016,0,0,0,1.147-1.3c2.758-4.026,2.729-7.365,1.81-9.872-.633-1.726-3.051-5.279-6.17-9.647a14.769,14.769,0,0,1-1.1-1.725A7.793,7.793,0,0,1,272.458,0L269.93,7.011a.373.373,0,0,0,.122.425c.132.1.324.25.552.427q.723,5.676,2.8,17.657a23.228,23.228,0,0,1-4.891,2.012.068.068,0,0,0,.029.133A29.808,29.808,0,0,0,273.6,26.6q.143.816.291,1.658c1.548,8.838,3.548,17.094,2.467,20.919-.466,1.651,1.224,1.542,1.762-.373a32.511,32.511,0,0,0,1.054-10.137c0-3.584.153-2.161-1.191-10.1-.191-1.131-.424-2.491-.673-3.937m.9-10.415c1,1.141,1.406,5.636-1.036,8.359-.06.067-.124.134-.187.2-.9-5.2-1.877-10.763-1.877-10.763l-.112-.652a35.024,35.024,0,0,1,3.212,2.855" fill="#545252"/>
      <path id="Path_668" data-name="Path 668" d="M141.743,36.51c-.641-3.881-1.37-8.141-2.037-11.982a7.04,7.04,0,0,0,1.036-1.2c2.758-4.026,2.729-7.365,1.81-9.872-.633-1.726-3.051-5.279-6.17-9.647a14.9,14.9,0,0,1-1.1-1.725A7.793,7.793,0,0,1,134.748,0l-2.529,7.011a.375.375,0,0,0,.123.425l.7.541c.228,1.587,1.5,10.4,2.534,16.681.051.287.1.564.148.848a23.165,23.165,0,0,1-4.915,2.026.068.068,0,0,0,.03.133,29.652,29.652,0,0,0,5.075-1.076q3.5,20.077,4.549,30.814,0,.489.244,5.253.123,2.138.672,2.138.733,0,1.71-5.253a26.92,26.92,0,0,0,.612-5.62q0-3.789-1.956-17.411m-1.246-22.3c1,1.141,1.406,5.636-1.036,8.359-.026.029-.054.058-.081.087-1-5.75-1.79-10.154-1.79-10.154l-.225-1.08a34.029,34.029,0,0,1,3.132,2.788" fill="#545252"/>
      <path id="Path_669" data-name="Path 669" d="M323.546,11.912l-.12-.64a36.022,36.022,0,0,1,3.312,2.937c1,1.142,3.325,4,.883,6.726-1.6,1.782.288.256.288.256,1.821-1.463,1.8-5.226.885-7.733-.634-1.727-3.052-5.279-6.17-9.648a14.69,14.69,0,0,1-1.1-1.725A7.761,7.761,0,0,1,320.989,0l-2.528,7.012a.374.374,0,0,0,.122.425c.183.14.48.37.843.653.34,2.871,1.591,12.995,3.753,25.693,2.851,15.964,2.587,14.675,2.832,19.4a10.079,10.079,0,0,1-.244,3.3q-1.1,2.873-13.257,9.837-13.379,7.758-21.136,7.758-15.273,0-15.273-14.846a28.6,28.6,0,0,1,1.772-9.53,7.746,7.746,0,0,0,.366-1.893c0-.326-1.514-.382-1.514-.382a16.537,16.537,0,0,1-1.561,4.149c-2,4.48-1.813,6.984-1.813,11.994a19.633,19.633,0,0,0,.246,2.994q2.015,14.172,15.149,14.172,9.1,0,22.236-7.758,10.752-6.414,14.632-11.149t3.512-14.02c-2.566-18.856-5.58-35.895-5.58-35.895" fill="#545252"/>
      <path id="Path_670" data-name="Path 670" d="M341.789,54.347q-1.529-7.146-8.248-14.966-.366-.427-13.684-15.089c-1.032-1.134-2.049-2.3-3.025-3.435.913-4.652-.379-7.663-2.164-9.593-1.248-1.35-4.846-3.7-9.4-6.534a14.688,14.688,0,0,1-1.676-1.171c-.986-.838-1-1.491-1.3-1.718l.361,7.445a.375.375,0,0,0,.277.345l.721.2a92.394,92.394,0,0,0,10.063,14.2,21.785,21.785,0,0,1-4.475,4.75.068.068,0,0,0,.078.111,24.747,24.747,0,0,0,5.246-3.858q1.088,1.274,2.242,2.565l14.05,15.15a51.91,51.91,0,0,1,8.919,13.072q.306.795,1.161,4.033.61,2.443,1.038,2.443,1.528,0-.182-7.942m-28.729-41.6c1.176.579,2.9,3.641,2.572,6.691-3.01-3.591-5.458-6.774-6.406-8.023a33.1,33.1,0,0,1,3.834,1.332" fill="#545252"/>
    </g>
  </g>
</svg>
