<?xml version="1.0" encoding="utf-8"?>
<!-- Generator: Adobe Illustrator 28.1.0, SVG Export Plug-In . SVG Version: 6.00 Build 0)  -->
<svg version="1.1" id="Layer_1" xmlns="http://www.w3.org/2000/svg" xmlns:xlink="http://www.w3.org/1999/xlink" x="0px" y="0px"
	 viewBox="0 0 186 55" style="enable-background:new 0 0 186 55;" xml:space="preserve">
<style type="text/css">
	.st0{fill:#818181;}
</style>
<g>
	<path class="st0" d="M16.2,23.8c-2.1,1.7-3.7,2.6-3.7,2.6c0.1-5.5-0.1-6.9-0.4-10.6c0-0.4,0.3-0.8,0.7-0.7c1.6,0.5,2.2,0.8,3.4,1.4
		C16.3,19.7,16.3,21.1,16.2,23.8L16.2,23.8z M16.6,30.4c0,0,5-1.7,9.5-5c1.9-1.4,3.7-3,5-5c0,0-2.1-2.4-4-3.8c0,0-0.7,2-4.1,4.9
		c-1.5,1.3-3.5,2.8-6.1,4.4 M16.3,24.7c-0.3,0.2-0.6,0.5-1,0.7c-1,0.7-1.9,1.3-2.9,1.8c0,1-0.4,5.2-0.6,6.3c1.3-0.5,2.6-1,3.9-1.5
		C15.9,31.6,16.3,25.1,16.3,24.7z M22.4,21c1.8-1.6,3.5-3.4,3.8-4.9c0,0-3.4-2.9-9.3-4.7c-0.4-0.1-0.7,0.2-0.7,0.6
		c0.2,1.9,0.4,3.3,0.5,4.9c0.1,1.7,0.2,3.6,0.2,6.4c0,0.3,0,0.6,0,1c0,0.3,0,0.6,0,0.9C16.9,25.1,19.8,23.2,22.4,21L22.4,21z
		 M15.7,32.8c-0.7,0.3-1.5,0.6-2.4,0.8c-0.6,0.2-1.1,0.3-1.6,0.5c-0.1,0.9-0.7,3.8-1.4,5.9c-0.2,0.5,0.5,0.8,0.6,0.8
		c1.6-0.2,3.3-0.6,3.3-0.6C14.5,39.6,15.6,34,15.7,32.8z M29,31.7c2.2-1.1,4.5-2.5,6.7-4.2c-1.3-2.4-2.2-4-4.1-6.3
		c0,0-2.4,4-9.3,7.5c-1.7,0.9-3.6,1.7-5.8,2.4c0,0.2,0,0.4-0.1,0.7c0,0.3-0.1,0.6-0.1,0.9c-0.1,1.1-0.3,2.5-0.6,3.7
		C15.8,36.4,22,35.4,29,31.7L29,31.7z M38.6,36.1c-0.5-2.9-1.2-4.9-2.4-7.6c0,0-2.3,2-6.9,4.2c-3.3,1.6-7.9,3.3-13.7,4.5
		c-0.3,1.3-0.5,2.3-0.7,3.1c-0.3,1-0.5,1.7-0.8,2.6c-0.1,0.4,0.2,0.8,0.6,0.8c11.9-1.5,19.3-4.7,23.7-7
		C38.5,36.6,38.7,36.3,38.6,36.1L38.6,36.1z"/>
	<path class="st0" d="M55.5,38.8c0,0.7-0.1,1.3-0.2,1.8c-0.2,0.5-0.4,0.9-0.7,1.2c-0.3,0.3-0.6,0.6-1,0.7s-0.8,0.2-1.3,0.2
		c-0.5,0-0.9-0.1-1.3-0.2c-0.4-0.2-0.7-0.4-1-0.7c-0.3-0.3-0.5-0.7-0.7-1.2c-0.2-0.5-0.2-1.1-0.2-1.8v-1.6c0-0.7,0.1-1.3,0.2-1.8
		c0.2-0.5,0.4-0.9,0.7-1.2c0.3-0.3,0.6-0.6,1-0.7c0.4-0.2,0.8-0.2,1.3-0.2c0.5,0,0.9,0.1,1.3,0.2c0.4,0.2,0.7,0.4,1,0.7
		c0.3,0.3,0.5,0.7,0.7,1.2c0.2,0.5,0.2,1.1,0.2,1.8V38.8z M54.4,37.1c0-0.5,0-1-0.1-1.4c-0.1-0.4-0.2-0.7-0.4-0.9
		c-0.2-0.2-0.4-0.4-0.7-0.5c-0.3-0.1-0.6-0.2-0.9-0.2c-0.3,0-0.6,0.1-0.9,0.2c-0.3,0.1-0.5,0.3-0.7,0.5c-0.2,0.2-0.3,0.5-0.4,0.9
		c-0.1,0.4-0.1,0.8-0.1,1.4v1.6c0,0.5,0,1,0.1,1.4c0.1,0.4,0.2,0.7,0.4,0.9c0.2,0.2,0.4,0.4,0.7,0.5c0.3,0.1,0.6,0.2,0.9,0.2
		c0.3,0,0.6-0.1,0.9-0.2c0.3-0.1,0.5-0.3,0.7-0.5c0.2-0.2,0.3-0.5,0.4-0.9c0.1-0.4,0.1-0.8,0.1-1.4V37.1z"/>
	<path class="st0" d="M64.9,42.4c0,0.1,0,0.1-0.1,0.2c0,0.1-0.1,0.1-0.2,0.1h-0.6c-0.1,0-0.1,0-0.2-0.1c0-0.1-0.1-0.1-0.1-0.2v-4.5
		c0-0.3,0-0.5-0.1-0.7c-0.1-0.2-0.1-0.3-0.2-0.4c-0.1-0.1-0.2-0.2-0.3-0.2c-0.1,0-0.3-0.1-0.4-0.1c-0.2,0-0.4,0-0.7,0.1
		c-0.2,0.1-0.5,0.1-0.7,0.2c0.1,0.3,0.1,0.6,0.1,1v4.5c0,0.1,0,0.1-0.1,0.2c0,0.1-0.1,0.1-0.2,0.1h-0.6c-0.1,0-0.1,0-0.1-0.1
		c0-0.1-0.1-0.1-0.1-0.2v-4.5c0-0.3,0-0.5-0.1-0.7c0-0.2-0.1-0.3-0.2-0.4c-0.1-0.1-0.2-0.2-0.3-0.2c-0.1,0-0.2-0.1-0.4-0.1
		c-0.2,0-0.4,0-0.7,0.1c-0.2,0.1-0.5,0.2-0.8,0.4v5.4c0,0.1,0,0.1-0.1,0.2c0,0.1-0.1,0.1-0.2,0.1h-0.6c-0.1,0-0.1,0-0.1-0.1
		c0-0.1-0.1-0.1-0.1-0.2v-6.5c0-0.1,0-0.1,0.1-0.2c0-0.1,0.1-0.1,0.2-0.1h0.6c0.1,0,0.1,0,0.2,0.1c0,0.1,0.1,0.1,0.1,0.2v0.2
		c0.2-0.2,0.5-0.3,0.8-0.4c0.3-0.1,0.6-0.2,0.9-0.2c0.3,0,0.5,0,0.7,0.1c0.2,0.1,0.4,0.2,0.5,0.4c0.3-0.2,0.7-0.3,1-0.4
		c0.3-0.1,0.7-0.1,1-0.1c0.3,0,0.5,0,0.8,0.1c0.2,0.1,0.4,0.2,0.6,0.4c0.2,0.2,0.3,0.4,0.4,0.7c0.1,0.3,0.1,0.7,0.1,1.1L64.9,42.4
		L64.9,42.4z"/>
	<path class="st0" d="M71.1,42.4c0,0.1,0,0.1-0.1,0.2s-0.1,0.1-0.2,0.1h-0.5c-0.1,0-0.1,0-0.2-0.1c0-0.1-0.1-0.1-0.1-0.2v-0.3
		c-0.3,0.2-0.6,0.3-0.9,0.4c-0.3,0.1-0.6,0.2-1,0.2c-0.3,0-0.5,0-0.7-0.1c-0.2-0.1-0.4-0.2-0.6-0.3c-0.2-0.2-0.3-0.4-0.4-0.6
		c-0.1-0.3-0.2-0.6-0.2-1v-0.2c0-0.3,0-0.6,0.1-0.9c0.1-0.3,0.3-0.5,0.5-0.6c0.2-0.2,0.5-0.3,0.9-0.4c0.4-0.1,0.8-0.1,1.3-0.1h0.9
		V38c0-0.5-0.1-0.9-0.3-1.1c-0.2-0.2-0.5-0.3-1-0.3c-0.4,0-0.7,0-1,0c-0.3,0-0.6,0-0.8,0.1h-0.1c-0.1,0-0.1,0-0.1,0
		c0,0-0.1-0.1-0.1-0.2V36c0-0.1,0.1-0.2,0.2-0.2c0.2,0,0.5-0.1,0.8-0.1c0.3,0,0.6-0.1,1-0.1c0.8,0,1.4,0.2,1.8,0.6
		c0.4,0.4,0.5,1,0.5,1.8L71.1,42.4L71.1,42.4z M70.1,39.3h-0.9c-0.4,0-0.7,0-0.9,0.1c-0.2,0-0.4,0.1-0.6,0.2
		c-0.1,0.1-0.2,0.2-0.3,0.4c-0.1,0.2-0.1,0.4-0.1,0.6v0.2c0,0.5,0.1,0.8,0.3,0.9c0.2,0.2,0.5,0.2,0.8,0.2c0.3,0,0.5,0,0.8-0.1
		c0.3-0.1,0.5-0.2,0.8-0.4L70.1,39.3L70.1,39.3z"/>
	<path class="st0" d="M77.8,42.4c0,0.1,0,0.1-0.1,0.2s-0.1,0.1-0.2,0.1h-0.6c-0.1,0-0.1,0-0.2-0.1c0-0.1-0.1-0.1-0.1-0.2v-4.2
		c0-0.3,0-0.6-0.1-0.8c-0.1-0.2-0.1-0.4-0.2-0.5c-0.1-0.1-0.2-0.2-0.4-0.3c-0.2-0.1-0.4-0.1-0.6-0.1c-0.3,0-0.5,0-0.8,0.1
		c-0.3,0.1-0.5,0.2-0.8,0.4v5.4c0,0.1,0,0.1-0.1,0.2s-0.1,0.1-0.2,0.1H73c-0.1,0-0.1,0-0.2-0.1c0-0.1-0.1-0.1-0.1-0.2v-6.5
		c0-0.1,0-0.1,0.1-0.2c0-0.1,0.1-0.1,0.2-0.1h0.6c0.1,0,0.1,0,0.2,0.1c0,0.1,0.1,0.1,0.1,0.2v0.2c0.3-0.2,0.6-0.3,0.9-0.4
		c0.3-0.1,0.6-0.1,1-0.1c0.7,0,1.2,0.2,1.6,0.7c0.3,0.5,0.5,1.1,0.5,2L77.8,42.4L77.8,42.4z"/>
	<path class="st0" d="M88.8,40c0,0.5-0.1,1-0.3,1.3c-0.2,0.3-0.4,0.6-0.8,0.8c-0.3,0.2-0.7,0.3-1.1,0.4c-0.4,0.1-0.9,0.1-1.3,0.1
		c-0.4,0-0.8,0-1.1,0c-0.3,0-0.6,0-0.8-0.1c-0.1,0-0.2-0.1-0.3-0.1S83,42.3,83,42.2v-8.5c0-0.3,0.1-0.4,0.4-0.5c0.2,0,0.5,0,0.8-0.1
		c0.3,0,0.7,0,1.1,0c0.5,0,0.9,0,1.3,0.1c0.4,0.1,0.8,0.2,1.1,0.4c0.3,0.2,0.6,0.4,0.8,0.8c0.2,0.3,0.3,0.7,0.3,1.2v0.2
		c0,0.5-0.1,0.9-0.3,1.2c-0.2,0.3-0.5,0.6-0.9,0.8c0.4,0.2,0.7,0.4,1,0.8c0.2,0.4,0.4,0.8,0.4,1.3L88.8,40L88.8,40z M87.7,35.6
		c0-0.3-0.1-0.6-0.2-0.7c-0.1-0.2-0.3-0.3-0.5-0.5c-0.2-0.1-0.5-0.2-0.8-0.2c-0.3,0-0.6-0.1-1-0.1c-0.2,0-0.4,0-0.6,0
		c-0.2,0-0.4,0-0.6,0v3.2h1.8c0.3,0,0.6,0,0.9-0.1c0.2-0.1,0.4-0.2,0.5-0.3c0.1-0.1,0.2-0.3,0.3-0.5c0.1-0.2,0.1-0.4,0.1-0.6
		L87.7,35.6L87.7,35.6z M87.7,39.8c0-0.2,0-0.4-0.1-0.6c-0.1-0.2-0.2-0.4-0.3-0.5c-0.1-0.1-0.3-0.3-0.6-0.4
		c-0.2-0.1-0.5-0.1-0.9-0.1h-1.8v3.5c0.2,0,0.4,0,0.6,0c0.2,0,0.4,0,0.6,0c0.4,0,0.7,0,1-0.1c0.3-0.1,0.5-0.1,0.8-0.3
		c0.2-0.1,0.4-0.3,0.5-0.5c0.1-0.2,0.2-0.5,0.2-0.9L87.7,39.8L87.7,39.8z"/>
	<path class="st0" d="M95.2,42.4c0,0.1,0,0.1-0.1,0.2c0,0.1-0.1,0.1-0.2,0.1h-0.6c-0.1,0-0.1,0-0.2-0.1c0-0.1-0.1-0.1-0.1-0.2v-0.2
		c-0.3,0.2-0.6,0.3-0.9,0.4c-0.3,0.1-0.6,0.1-1,0.1c-0.7,0-1.2-0.2-1.6-0.7c-0.3-0.5-0.5-1.1-0.5-2v-4.2c0-0.1,0-0.1,0.1-0.2
		c0-0.1,0.1-0.1,0.2-0.1H91c0.1,0,0.1,0,0.2,0.1c0,0.1,0.1,0.1,0.1,0.2v4.2c0,0.3,0,0.6,0.1,0.8c0.1,0.2,0.1,0.4,0.2,0.5
		c0.1,0.1,0.2,0.2,0.4,0.3c0.2,0.1,0.4,0.1,0.6,0.1c0.3,0,0.5,0,0.8-0.1c0.3-0.1,0.5-0.2,0.8-0.4v-5.4c0-0.1,0-0.1,0.1-0.2
		c0-0.1,0.1-0.1,0.2-0.1H95c0.1,0,0.1,0,0.2,0.1c0,0.1,0.1,0.1,0.1,0.2L95.2,42.4L95.2,42.4z"/>
	<path class="st0" d="M101,40.9c0,0.3-0.1,0.6-0.2,0.8c-0.1,0.2-0.3,0.4-0.5,0.6c-0.2,0.1-0.4,0.3-0.7,0.3c-0.3,0.1-0.6,0.1-0.9,0.1
		c-0.1,0-0.2,0-0.4,0c-0.2,0-0.3,0-0.5,0c-0.2,0-0.3,0-0.5-0.1c-0.2,0-0.3-0.1-0.5-0.1c-0.2,0-0.2-0.1-0.2-0.3v-0.4
		c0-0.1,0-0.1,0.1-0.1c0,0,0.1-0.1,0.2-0.1h0c0.1,0,0.3,0,0.5,0.1c0.2,0,0.3,0,0.5,0c0.2,0,0.3,0,0.5,0c0.2,0,0.3,0,0.4,0
		c0.4,0,0.7-0.1,0.9-0.2c0.2-0.1,0.3-0.4,0.3-0.7c0-0.2-0.1-0.4-0.2-0.5c-0.1-0.1-0.4-0.3-0.7-0.5l-1.2-0.8
		c-0.4-0.2-0.7-0.5-0.9-0.8c-0.2-0.3-0.3-0.6-0.3-1c0-0.3,0.1-0.6,0.2-0.8c0.1-0.2,0.3-0.4,0.5-0.5c0.2-0.1,0.4-0.2,0.7-0.3
		c0.3-0.1,0.5-0.1,0.9-0.1c0.3,0,0.7,0,1,0c0.3,0,0.6,0.1,0.9,0.1c0.2,0,0.2,0.1,0.2,0.3v0.4c0,0.1-0.1,0.2-0.2,0.2h0
		c-0.2,0-0.5,0-0.8-0.1c-0.3,0-0.7,0-1,0c-0.3,0-0.6,0-0.8,0.1c-0.2,0.1-0.3,0.3-0.3,0.6c0,0.2,0.1,0.4,0.2,0.5
		c0.1,0.1,0.3,0.3,0.6,0.5l1.2,0.8c0.5,0.3,0.8,0.6,1,0.9C100.9,40.2,101,40.5,101,40.9L101,40.9z"/>
	<path class="st0" d="M103.6,34.3c0,0.1,0,0.1-0.1,0.2c0,0.1-0.1,0.1-0.2,0.1h-0.6c-0.1,0-0.1,0-0.2-0.1c0-0.1-0.1-0.1-0.1-0.2v-1
		c0-0.1,0-0.1,0.1-0.2c0-0.1,0.1-0.1,0.2-0.1h0.6c0.1,0,0.1,0,0.2,0.1c0,0.1,0.1,0.1,0.1,0.2V34.3z M103.6,42.4c0,0.1,0,0.1-0.1,0.2
		c0,0.1-0.1,0.1-0.2,0.1h-0.6c-0.1,0-0.1,0-0.2-0.1c0-0.1-0.1-0.1-0.1-0.2v-6.5c0-0.1,0-0.1,0.1-0.2c0-0.1,0.1-0.1,0.2-0.1h0.6
		c0.1,0,0.1,0,0.2,0.1c0,0.1,0.1,0.1,0.1,0.2V42.4z"/>
	<path class="st0" d="M110.3,42.4c0,0.1,0,0.1-0.1,0.2c0,0.1-0.1,0.1-0.2,0.1h-0.6c-0.1,0-0.1,0-0.2-0.1c0-0.1-0.1-0.1-0.1-0.2v-4.2
		c0-0.3,0-0.6-0.1-0.8c-0.1-0.2-0.1-0.4-0.2-0.5c-0.1-0.1-0.2-0.2-0.4-0.3c-0.2-0.1-0.4-0.1-0.6-0.1c-0.3,0-0.5,0-0.8,0.1
		c-0.3,0.1-0.5,0.2-0.8,0.4v5.4c0,0.1,0,0.1-0.1,0.2c0,0.1-0.1,0.1-0.2,0.1h-0.6c-0.1,0-0.1,0-0.2-0.1c0-0.1-0.1-0.1-0.1-0.2v-6.5
		c0-0.1,0-0.1,0.1-0.2c0-0.1,0.1-0.1,0.2-0.1h0.6c0.1,0,0.1,0,0.2,0.1c0,0.1,0.1,0.1,0.1,0.2v0.2c0.3-0.2,0.6-0.3,0.9-0.4
		c0.3-0.1,0.6-0.1,1-0.1c0.7,0,1.2,0.2,1.6,0.7c0.3,0.5,0.5,1.1,0.5,2L110.3,42.4L110.3,42.4z"/>
	<path class="st0" d="M117,39.2c0,0.2-0.1,0.3-0.2,0.3h-4v0.2c0,0.8,0.1,1.3,0.4,1.6c0.3,0.3,0.7,0.5,1.2,0.5c0.3,0,0.7,0,1.1,0
		c0.4,0,0.7-0.1,1-0.1h0.1c0,0,0.1,0,0.1,0c0,0,0.1,0.1,0.1,0.1v0.4c0,0.1,0,0.2,0,0.2c0,0-0.1,0.1-0.2,0.1c-0.3,0.1-0.7,0.1-1,0.2
		c-0.3,0-0.7,0.1-1.1,0.1c-0.3,0-0.7,0-1-0.1c-0.3-0.1-0.6-0.3-0.9-0.5c-0.2-0.2-0.5-0.5-0.6-0.9c-0.2-0.4-0.2-0.9-0.2-1.5v-1.1
		c0-0.9,0.2-1.6,0.7-2.2c0.5-0.5,1.1-0.8,2-0.8c0.4,0,0.8,0.1,1.1,0.2c0.3,0.1,0.6,0.3,0.8,0.6c0.2,0.3,0.4,0.6,0.5,0.9
		c0.1,0.4,0.2,0.8,0.2,1.2L117,39.2L117,39.2z M115.9,38.5c0-0.7-0.1-1.2-0.4-1.5c-0.3-0.3-0.6-0.5-1.2-0.5c-0.5,0-0.9,0.2-1.2,0.5
		c-0.3,0.3-0.4,0.8-0.4,1.5v0.1h3.2V38.5L115.9,38.5z"/>
	<path class="st0" d="M122.6,40.9c0,0.3-0.1,0.6-0.2,0.8s-0.3,0.4-0.5,0.6c-0.2,0.1-0.4,0.3-0.7,0.3c-0.3,0.1-0.6,0.1-0.9,0.1
		c-0.1,0-0.2,0-0.4,0c-0.2,0-0.3,0-0.5,0c-0.2,0-0.3,0-0.5-0.1c-0.2,0-0.3-0.1-0.5-0.1c-0.2,0-0.2-0.1-0.2-0.3v-0.4
		c0-0.1,0-0.1,0.1-0.1s0.1-0.1,0.2-0.1h0c0.1,0,0.3,0,0.5,0.1c0.2,0,0.3,0,0.5,0c0.2,0,0.3,0,0.5,0c0.2,0,0.3,0,0.4,0
		c0.4,0,0.7-0.1,0.9-0.2c0.2-0.1,0.3-0.4,0.3-0.7c0-0.2-0.1-0.4-0.2-0.5s-0.4-0.3-0.7-0.5l-1.2-0.8c-0.4-0.2-0.7-0.5-0.9-0.8
		s-0.3-0.6-0.3-1c0-0.3,0.1-0.6,0.2-0.8c0.1-0.2,0.3-0.4,0.5-0.5c0.2-0.1,0.4-0.2,0.7-0.3c0.3-0.1,0.5-0.1,0.9-0.1c0.3,0,0.7,0,1,0
		c0.3,0,0.6,0.1,0.9,0.1c0.2,0,0.2,0.1,0.2,0.3v0.4c0,0.1-0.1,0.2-0.2,0.2h0c-0.2,0-0.5,0-0.8-0.1c-0.3,0-0.7,0-1,0
		c-0.3,0-0.6,0-0.8,0.1c-0.2,0.1-0.3,0.3-0.3,0.6c0,0.2,0.1,0.4,0.2,0.5c0.1,0.1,0.3,0.3,0.6,0.5l1.2,0.8c0.5,0.3,0.8,0.6,1,0.9
		C122.5,40.2,122.6,40.5,122.6,40.9L122.6,40.9z"/>
	<path class="st0" d="M128.1,40.9c0,0.3-0.1,0.6-0.2,0.8c-0.1,0.2-0.3,0.4-0.5,0.6c-0.2,0.1-0.4,0.3-0.7,0.3
		c-0.3,0.1-0.6,0.1-0.9,0.1c-0.1,0-0.2,0-0.4,0c-0.2,0-0.3,0-0.5,0c-0.2,0-0.3,0-0.5-0.1c-0.2,0-0.3-0.1-0.5-0.1
		c-0.2,0-0.2-0.1-0.2-0.3v-0.4c0-0.1,0-0.1,0.1-0.1c0,0,0.1-0.1,0.2-0.1h0c0.1,0,0.3,0,0.5,0.1c0.2,0,0.3,0,0.5,0c0.2,0,0.3,0,0.5,0
		c0.2,0,0.3,0,0.4,0c0.4,0,0.7-0.1,0.9-0.2c0.2-0.1,0.3-0.4,0.3-0.7c0-0.2-0.1-0.4-0.2-0.5s-0.4-0.3-0.7-0.5l-1.2-0.8
		c-0.4-0.2-0.7-0.5-0.9-0.8s-0.3-0.6-0.3-1c0-0.3,0.1-0.6,0.2-0.8s0.3-0.4,0.5-0.5c0.2-0.1,0.4-0.2,0.7-0.3c0.3-0.1,0.5-0.1,0.9-0.1
		c0.3,0,0.7,0,1,0c0.3,0,0.6,0.1,0.9,0.1c0.2,0,0.2,0.1,0.2,0.3v0.4c0,0.1-0.1,0.2-0.2,0.2h0c-0.2,0-0.5,0-0.8-0.1c-0.3,0-0.7,0-1,0
		c-0.3,0-0.6,0-0.8,0.1c-0.2,0.1-0.3,0.3-0.3,0.6c0,0.2,0.1,0.4,0.2,0.5c0.1,0.1,0.3,0.3,0.6,0.5l1.2,0.8c0.5,0.3,0.8,0.6,1,0.9
		C128,40.2,128.1,40.5,128.1,40.9L128.1,40.9z"/>
	<path class="st0" d="M50,21.4c0.2,0,0.2,0.1,0.2,0.3l-0.1,0.6c0,0.2,0,0.4,0,0.6c0,0.5,0,0.9,0.1,1.3c0.1,0.4,0.2,0.8,0.4,1.1
		c0.2,0.3,0.5,0.6,0.9,0.7c0.4,0.2,0.9,0.3,1.6,0.3c0.2,0,0.4,0,0.6,0c0.2,0,0.4,0,0.6-0.1c0-0.3,0-0.5,0-0.7c0-0.2,0-0.4,0-0.5
		v-9.8c0-0.1,0-0.1,0.1-0.2c0-0.1,0.1-0.1,0.2-0.1H55c0.1,0,0.1,0,0.2,0.1c0,0.1,0.1,0.1,0.1,0.2V25c0,0.1,0,0.3,0,0.4
		c0,0.2,0,0.4,0,0.6l0,0.6c0,0.2,0,0.3,0,0.4c0,0.1,0,0.2-0.1,0.2s-0.1,0.1-0.2,0.1c-0.3,0.1-0.6,0.1-0.9,0.2c-0.3,0-0.7,0-1,0
		c-0.7,0-1.4-0.1-1.9-0.3c-0.5-0.2-0.9-0.5-1.2-0.8c-0.3-0.4-0.5-0.8-0.7-1.3c-0.1-0.5-0.2-1.1-0.2-1.7c0-0.1,0-0.2,0-0.3
		c0-0.1,0-0.3,0-0.5c0-0.2,0-0.3,0-0.5c0-0.2,0-0.3,0.1-0.4c0-0.2,0.1-0.3,0.2-0.3L50,21.4L50,21.4z"/>
	<path class="st0" d="M57.4,15.2c0-0.1,0-0.1,0.1-0.2c0-0.1,0.1-0.1,0.2-0.1h0.6c0.1,0,0.1,0,0.2,0.1c0,0.1,0.1,0.1,0.1,0.2v8
		c0,0.2,0,0.3,0.1,0.4c0,0.1,0.1,0.2,0.2,0.2c0.1,0.1,0.2,0.1,0.3,0.1c0.1,0,0.2,0,0.4,0H62v1.2h-2.8c-0.3,0-0.5,0-0.7-0.1
		c-0.2-0.1-0.4-0.1-0.5-0.3c-0.1-0.1-0.3-0.3-0.3-0.5c-0.1-0.2-0.1-0.5-0.1-0.8L57.4,15.2L57.4,15.2z"/>
	<path class="st0" d="M61.4,24.2c0-0.1,0-0.1,0.1-0.1c0.1,0,0.2,0,0.3,0h0.4c0.1,0,0.1,0,0.2,0c0.1,0,0.2,0,0.3,0
		c0.1,0,0.2-0.1,0.2-0.1c0.1-0.1,0.1-0.1,0.1-0.2c0-0.1,0-0.2,0-0.4v-1.3c0-0.9,0.2-1.7,0.7-2.2s1.1-0.8,2-0.8
		c0.9,0,1.5,0.2,1.9,0.7c0.4,0.5,0.7,1.2,0.7,2.2v0.8c0,0.1,0,0.2,0,0.4c0,0.1,0,0.2,0,0.3c0,0.1,0.1,0.2,0.1,0.3
		c0.1,0.1,0.2,0.1,0.3,0.2c0.1,0,0.2,0.1,0.3,0.1c0.1,0,0.2,0,0.3,0h2.4v1.2h-2.4c-0.3,0-0.6,0-0.8-0.1c-0.3-0.1-0.5-0.2-0.6-0.4
		c-0.4,0.6-1.1,0.9-2,0.9c-0.5,0-0.9-0.1-1.3-0.2c-0.4-0.2-0.7-0.4-0.8-0.7c-0.2,0.2-0.4,0.3-0.7,0.4c-0.3,0.1-0.6,0.1-0.9,0.1h-0.3
		c-0.1,0-0.2,0-0.3,0c-0.1,0-0.1-0.1-0.1-0.1L61.4,24.2L61.4,24.2z M64.2,22v0.6c0,0.3,0,0.6,0.1,0.8c0.1,0.4,0.2,0.7,0.5,0.8
		c0.3,0.2,0.6,0.3,1,0.3c0.6,0,1-0.2,1.2-0.5s0.3-0.8,0.3-1.4V22c0-0.6-0.1-1.1-0.3-1.4c-0.2-0.3-0.6-0.5-1.2-0.5
		c-0.6,0-1,0.2-1.2,0.5C64.3,20.9,64.2,21.4,64.2,22L64.2,22z"/>
	<path class="st0" d="M71.1,24.2c0-0.1,0-0.1,0.1-0.1c0.1,0,0.2,0,0.3,0h1.6c-0.2-0.2-0.3-0.5-0.4-0.8c-0.1-0.4-0.1-0.8-0.1-1.3
		v-0.2c0-0.5,0.1-0.9,0.2-1.3c0.1-0.4,0.4-0.7,0.6-0.9c0.3-0.2,0.6-0.4,0.9-0.5c0.4-0.1,0.8-0.2,1.2-0.2c0.2,0,0.4,0,0.6,0
		c0.2,0,0.4,0,0.7,0.1c0.1,0,0.2,0,0.2,0.1c0.1,0,0.1,0.1,0.1,0.2v0.5c0,0.1,0,0.2-0.1,0.2c-0.1,0-0.1,0-0.2,0c-0.2,0-0.4,0-0.6,0
		c-0.2,0-0.4,0-0.6,0c-0.6,0-1.1,0.1-1.5,0.4c-0.4,0.3-0.5,0.8-0.5,1.5v0.2c0,0.5,0.1,0.9,0.3,1.3c0.2,0.4,0.4,0.6,0.6,0.7h2.6
		c0.1,0,0.1,0,0.2,0.1c0.1,0,0.1,0.1,0.1,0.2V25c0,0.1,0,0.1-0.1,0.2c-0.1,0-0.1,0.1-0.2,0.1h-5.6c-0.1,0-0.2,0-0.3,0
		c-0.1,0-0.1-0.1-0.1-0.1V24.2L71.1,24.2z"/>
	<path class="st0" d="M78.6,24.3c0-0.2,0.1-0.2,0.2-0.2h4.3c0.1,0,0.2,0,0.3,0c0.1,0,0.2,0,0.3-0.1c0.1,0,0.2-0.1,0.2-0.2
		c0.1-0.1,0.1-0.2,0.1-0.3v-8.3c0-0.1,0-0.1,0.1-0.2c0-0.1,0.1-0.1,0.2-0.1h0.6c0.1,0,0.1,0,0.2,0.1c0,0.1,0.1,0.1,0.1,0.2v8.5
		c0,0.1,0.1,0.1,0.2,0.2c0.1,0,0.2,0.1,0.3,0.1c0.1,0,0.2,0,0.3,0c0.1,0,0.2,0,0.3,0h2.4v1.2h-2.4c-0.3,0-0.5,0-0.8-0.1
		c-0.3-0.1-0.5-0.2-0.7-0.4c-0.2,0.2-0.5,0.3-0.8,0.4c-0.3,0.1-0.6,0.1-0.8,0.1h-4.2c-0.2,0-0.2-0.1-0.2-0.2L78.6,24.3L78.6,24.3z
		 M80,14.5c-0.2,0-0.2-0.1-0.2-0.2v-0.2c0-0.1,0.1-0.1,0.2-0.1h0.2c-0.1-0.1-0.1-0.2-0.2-0.4c0-0.1-0.1-0.3-0.1-0.4
		c0-0.4,0.1-0.7,0.3-0.8c0.2-0.2,0.5-0.3,0.9-0.3c0.1,0,0.1,0,0.2,0c0.1,0,0.2,0,0.3,0c0.1,0,0.1,0.1,0.1,0.2v0.2
		c0,0.1-0.1,0.2-0.2,0.2c0,0-0.1,0-0.2,0c-0.1,0-0.2,0-0.2,0c-0.5,0-0.7,0.2-0.7,0.6c0,0.2,0,0.3,0.1,0.5c0.1,0.1,0.1,0.2,0.2,0.2
		h0.9c0.1,0,0.2,0.1,0.2,0.2v0.2c0,0.1,0,0.1-0.1,0.1c0,0-0.1,0-0.2,0L80,14.5L80,14.5z M80.3,16.4c0-0.1,0-0.1,0.1-0.2
		c0-0.1,0.1-0.1,0.2-0.1h0.6c0.1,0,0.1,0,0.2,0.1c0,0.1,0.1,0.1,0.1,0.2v6.1c0,0.1,0,0.1-0.1,0.2c0,0.1-0.1,0.1-0.2,0.1h-0.6
		c-0.1,0-0.1,0-0.2-0.1c0-0.1-0.1-0.1-0.1-0.2L80.3,16.4L80.3,16.4z"/>
	<path class="st0" d="M87.9,24.2c0-0.1,0-0.1,0.1-0.1c0.1,0,0.2,0,0.3,0h1c0.2,0,0.4,0,0.5-0.1c0.1,0,0.1-0.2,0.1-0.4v-8.3
		c0-0.1,0-0.1,0.1-0.2c0-0.1,0.1-0.1,0.2-0.1h0.6c0.1,0,0.1,0,0.2,0.1c0,0.1,0.1,0.1,0.1,0.2v8.2c0,0.1,0,0.3,0,0.4
		c0,0.1,0,0.3,0,0.4c0,0.1,0,0.3,0,0.4c0,0.1,0,0.2-0.1,0.2c0,0.1-0.1,0.1-0.2,0.2c-0.1,0-0.2,0-0.3,0.1c-0.1,0-0.3,0-0.4,0
		c-0.2,0-0.3,0-0.5,0c-0.2,0-0.3,0-0.5,0h-0.7c-0.1,0-0.2,0-0.3,0c-0.1,0-0.1-0.1-0.1-0.1V24.2L87.9,24.2z"/>
	<path class="st0" d="M97.2,21.4c0.1,0,0.2,0.1,0.2,0.3c0,0.1,0,0.2,0,0.3c0,0.1,0,0.2,0,0.4c0,0.1,0,0.2,0,0.3c0,0.1,0,0.2,0,0.3
		c0,0.5,0,0.9,0.1,1.3c0.1,0.4,0.2,0.8,0.4,1.1c0.2,0.3,0.5,0.5,0.9,0.7c0.4,0.2,0.9,0.3,1.5,0.3c0.2,0,0.4,0,0.6,0
		c0.2,0,0.4,0,0.6-0.1c0-0.2,0-0.5,0-0.7c0-0.2,0-0.4,0-0.6v-5.1c0-0.1,0-0.1,0.1-0.2c0-0.1,0.1-0.1,0.2-0.1h0.6
		c0.1,0,0.1,0,0.2,0.1c0,0.1,0.1,0.1,0.1,0.2v5.6c0,0.2,0,0.3,0,0.5l0,0.5c0,0.2,0,0.3,0,0.4c0,0.1,0,0.1-0.1,0.2
		c0,0-0.1,0.1-0.2,0.1c-0.3,0.1-0.7,0.1-1,0.2c-0.3,0-0.7,0-1,0c-0.7,0-1.4-0.1-1.9-0.3c-0.5-0.2-0.9-0.4-1.2-0.8
		c-0.3-0.3-0.5-0.8-0.7-1.3c-0.1-0.5-0.2-1.1-0.2-1.7c0-0.1,0-0.2,0-0.3c0-0.2,0-0.3,0-0.5c0-0.2,0-0.3,0-0.5c0-0.2,0-0.3,0.1-0.4
		c0-0.1,0-0.2,0.1-0.2c0,0,0.1-0.1,0.2-0.1L97.2,21.4L97.2,21.4z M98.9,17.8c0-0.1,0-0.2,0.1-0.2c0.1-0.1,0.1-0.1,0.2-0.1h0.6
		c0.1,0,0.1,0,0.2,0.1c0.1,0.1,0.1,0.1,0.1,0.2v0.7c0,0.1,0,0.2-0.1,0.2c-0.1,0.1-0.1,0.1-0.2,0.1h-0.5c-0.1,0-0.2,0-0.2-0.1
		c-0.1-0.1-0.1-0.1-0.1-0.2L98.9,17.8L98.9,17.8z"/>
	<path class="st0" d="M104.7,15.2c0-0.1,0-0.1,0.1-0.2c0-0.1,0.1-0.1,0.2-0.1h0.6c0.1,0,0.1,0,0.2,0.1c0,0.1,0.1,0.1,0.1,0.2v8
		c0,0.2,0,0.3,0.1,0.4c0,0.1,0.1,0.2,0.2,0.2c0.1,0.1,0.2,0.1,0.3,0.1c0.1,0,0.2,0,0.4,0h9.8v1.2h-10c-0.3,0-0.5,0-0.7-0.1
		c-0.2-0.1-0.4-0.1-0.5-0.3c-0.1-0.1-0.3-0.3-0.3-0.5c-0.1-0.2-0.1-0.5-0.1-0.8L104.7,15.2L104.7,15.2z"/>
	<path class="st0" d="M116.1,24.2c0-0.1,0-0.1,0.1-0.1c0.1,0,0.2,0,0.3,0h0.4c0.1,0,0.1,0,0.2,0c0.1,0,0.2,0,0.3,0
		c0.1,0,0.2-0.1,0.2-0.1c0.1-0.1,0.1-0.1,0.1-0.2c0-0.1,0-0.2,0-0.4v-1.3c0-0.9,0.2-1.7,0.7-2.2c0.5-0.5,1.1-0.8,2-0.8
		c0.9,0,1.5,0.2,1.9,0.7c0.4,0.5,0.7,1.2,0.7,2.2v0.8c0,0.1,0,0.2,0,0.4c0,0.1,0,0.2,0,0.3c0,0.1,0.1,0.2,0.1,0.3
		c0.1,0.1,0.2,0.1,0.3,0.2c0.1,0,0.2,0.1,0.3,0.1c0.1,0,0.2,0,0.3,0h7.9v1.2H124c-0.3,0-0.6,0-0.8-0.1c-0.3-0.1-0.5-0.2-0.6-0.4
		c-0.4,0.6-1.1,0.9-2,0.9c-0.5,0-0.9-0.1-1.3-0.2c-0.4-0.2-0.7-0.4-0.8-0.7c-0.2,0.2-0.4,0.3-0.7,0.4c-0.3,0.1-0.6,0.1-0.9,0.1h-0.3
		c-0.1,0-0.2,0-0.3,0c-0.1,0-0.1-0.1-0.1-0.1L116.1,24.2L116.1,24.2z M118.9,22v0.6c0,0.3,0,0.6,0.1,0.8c0.1,0.4,0.2,0.7,0.5,0.8
		c0.3,0.2,0.6,0.3,1,0.3c0.6,0,1-0.2,1.2-0.5c0.2-0.3,0.3-0.8,0.3-1.4V22c0-0.6-0.1-1.1-0.3-1.4c-0.2-0.3-0.6-0.5-1.2-0.5
		c-0.6,0-1,0.2-1.2,0.5C119,20.9,118.9,21.4,118.9,22L118.9,22z"/>
	<path class="st0" d="M131.5,24.2c0-0.1,0-0.1,0.1-0.1c0.1,0,0.2,0,0.3,0h1.6c-0.2-0.2-0.3-0.5-0.4-0.8c-0.1-0.4-0.1-0.8-0.1-1.3
		v-0.2c0-0.5,0.1-0.9,0.2-1.3c0.1-0.4,0.4-0.7,0.6-0.9c0.3-0.2,0.6-0.4,0.9-0.5c0.4-0.1,0.8-0.2,1.2-0.2c0.2,0,0.4,0,0.6,0
		c0.2,0,0.4,0,0.7,0.1c0.1,0,0.2,0,0.2,0.1c0.1,0,0.1,0.1,0.1,0.2v0.5c0,0.1,0,0.2-0.1,0.2c-0.1,0-0.1,0-0.2,0c-0.2,0-0.4,0-0.6,0
		c-0.2,0-0.4,0-0.6,0c-0.6,0-1.1,0.1-1.5,0.4c-0.4,0.3-0.5,0.8-0.5,1.5v0.2c0,0.5,0.1,0.9,0.3,1.3c0.2,0.4,0.4,0.6,0.6,0.7h2.6
		c0.1,0,0.1,0,0.2,0.1c0.1,0,0.1,0.1,0.1,0.2V25c0,0.1,0,0.1-0.1,0.2c-0.1,0-0.1,0.1-0.2,0.1h-5.6c-0.1,0-0.2,0-0.3,0
		c-0.1,0-0.1-0.1-0.1-0.1V24.2L131.5,24.2z"/>
	<path class="st0" d="M143.1,21.9c0-0.5,0.1-1,0.2-1.4c0.2-0.4,0.4-0.7,0.7-0.9c0.3-0.2,0.6-0.4,1-0.5c0.4-0.1,0.8-0.2,1.3-0.2
		c0.1,0,0.2,0,0.4,0c0.1,0,0.3,0,0.4,0c0.1,0,0.3,0,0.4,0.1c0.1,0,0.2,0,0.3,0.1c0.1,0,0.1,0,0.2,0.1c0,0,0,0.1,0,0.2v3.8
		c0,0.4,0.1,0.6,0.2,0.7c0.2,0.1,0.4,0.2,0.7,0.2h2.5v1.2h-2.6c-0.4,0-0.7-0.1-1-0.2c-0.3-0.1-0.5-0.3-0.6-0.6
		c-0.1,0.2-0.4,0.3-0.7,0.4s-0.6,0.1-1,0.1h-0.1c-0.8,0-1.4-0.2-1.8-0.7c-0.4-0.5-0.6-1.1-0.6-2V21.9L143.1,21.9z M144.1,22.1
		c0,0.5,0.1,1,0.3,1.3c0.2,0.3,0.6,0.5,1.2,0.5h0.2c0.1,0,0.3,0,0.4,0c0.1,0,0.3-0.1,0.4-0.1c0.1-0.1,0.2-0.1,0.3-0.2
		c0.1-0.1,0.1-0.2,0.1-0.4V20c-0.2,0-0.3,0-0.4,0c-0.1,0-0.2,0-0.4,0c-0.3,0-0.6,0-0.8,0.1c-0.3,0.1-0.5,0.2-0.7,0.3
		c-0.2,0.1-0.3,0.3-0.4,0.6c-0.1,0.2-0.2,0.5-0.2,0.9V22.1L144.1,22.1z M144.1,16.3c0-0.1,0-0.2,0.1-0.2c0.1-0.1,0.1-0.1,0.2-0.1
		h0.5c0.1,0,0.2,0,0.2,0.1c0.1,0.1,0.1,0.1,0.1,0.2v0.7c0,0.1,0,0.2-0.1,0.2c-0.1,0.1-0.1,0.1-0.2,0.1h-0.5c-0.1,0-0.2,0-0.2-0.1
		c-0.1-0.1-0.1-0.1-0.1-0.2L144.1,16.3L144.1,16.3z M146.2,16.3c0-0.1,0-0.2,0.1-0.2c0.1-0.1,0.1-0.1,0.2-0.1h0.5
		c0.1,0,0.1,0,0.2,0.1c0.1,0.1,0.1,0.1,0.1,0.2v0.7c0,0.1,0,0.2-0.1,0.2c-0.1,0.1-0.1,0.1-0.2,0.1h-0.5c-0.1,0-0.1,0-0.2-0.1
		c-0.1-0.1-0.1-0.1-0.1-0.2V16.3z"/>
	<path class="st0" d="M150.9,24.2c0-0.1,0-0.1,0.1-0.1c0.1,0,0.2,0,0.3,0h1.5v-4.8c0-0.1,0-0.1,0.1-0.2c0-0.1,0.1-0.1,0.2-0.1h0.6
		c0.1,0,0.1,0,0.2,0.1c0,0.1,0.1,0.1,0.1,0.2v0.5c0.2-0.2,0.5-0.3,0.7-0.4c0.3-0.1,0.5-0.2,0.8-0.3c0.3-0.1,0.5-0.1,0.7-0.1
		c0.2,0,0.4,0,0.6,0c0.5,0,1,0.1,1.4,0.2c0.4,0.1,0.8,0.3,1.1,0.6c0.3,0.3,0.5,0.6,0.7,1.1c0.1,0.4,0.2,1,0.2,1.6V23
		c0,0.1,0,0.3,0,0.4c0,0.1,0,0.2,0,0.4c0,0.1,0,0.2-0.1,0.3h3.1v1.2h-11.8c-0.1,0-0.2,0-0.3,0c-0.1,0-0.1-0.1-0.1-0.1V24.2
		L150.9,24.2z M153.9,24c0.2,0,0.4,0,0.7,0h4.2c0.1,0,0.2-0.1,0.3-0.2c0.1-0.2,0.1-0.5,0.1-0.9v-0.2c0-0.5-0.1-0.9-0.2-1.2
		c-0.1-0.3-0.3-0.6-0.5-0.8c-0.2-0.2-0.5-0.3-0.8-0.4c-0.3-0.1-0.7-0.1-1.1-0.1c-0.1,0-0.3,0-0.5,0c-0.2,0-0.4,0.1-0.7,0.1
		c-0.2,0.1-0.5,0.1-0.7,0.2c-0.2,0.1-0.5,0.2-0.6,0.4V24L153.9,24z"/>
	<path class="st0" d="M162.7,24.2c0-0.1,0-0.1,0.1-0.1c0.1,0,0.2,0,0.3,0h0.6c0.1,0,0.2,0,0.3,0c0.1,0,0.2,0,0.3-0.1
		c0.1,0,0.2-0.1,0.2-0.2c0.1-0.1,0.1-0.2,0.1-0.3v-3.6c0-0.1,0-0.1,0.1-0.2c0-0.1,0.1-0.1,0.2-0.1h0.6c0.1,0,0.1,0,0.2,0.1
		c0,0.1,0.1,0.1,0.1,0.2v3.8c0,0.1,0.1,0.1,0.2,0.2c0.1,0,0.2,0.1,0.3,0.1c0.1,0,0.2,0,0.3,0c0.1,0,0.2,0,0.3,0h2.3v1.2h-2.2
		c-0.3,0-0.5,0-0.8-0.1c-0.3-0.1-0.6-0.2-0.7-0.4c-0.2,0.2-0.5,0.3-0.8,0.4c-0.3,0.1-0.6,0.1-0.8,0.1h-0.4c-0.1,0-0.2,0-0.3,0
		c-0.1,0-0.1-0.1-0.1-0.1L162.7,24.2L162.7,24.2z M164.6,16.9c0-0.1,0-0.2,0.1-0.2c0.1-0.1,0.1-0.1,0.2-0.1h0.6c0.1,0,0.1,0,0.2,0.1
		c0.1,0.1,0.1,0.1,0.1,0.2v0.7c0,0.1,0,0.2-0.1,0.2c-0.1,0.1-0.1,0.1-0.2,0.1h-0.5c-0.1,0-0.2,0-0.2-0.1c-0.1-0.1-0.1-0.1-0.1-0.2
		L164.6,16.9L164.6,16.9z"/>
	<path class="st0" d="M168.5,24.2c0-0.1,0-0.1,0.1-0.1c0.1,0,0.2,0,0.3,0h0.4c0.1,0,0.1,0,0.2,0c0.1,0,0.2,0,0.3-0.1
		c0.1,0,0.2-0.1,0.2-0.1c0.1-0.1,0.1-0.1,0.1-0.3c0-0.1,0-0.2,0-0.4v-1.3c0-0.9,0.2-1.7,0.7-2.2c0.5-0.5,1.1-0.8,2-0.8
		c0.9,0,1.5,0.2,1.9,0.7c0.4,0.5,0.7,1.2,0.7,2.2v0.7c0,0.9-0.2,1.7-0.6,2.1c-0.4,0.5-1.1,0.7-2,0.7c-0.5,0-0.9-0.1-1.3-0.2
		c-0.4-0.1-0.6-0.4-0.9-0.6c-0.1,0.2-0.4,0.4-0.7,0.5s-0.6,0.1-1,0.1h-0.2c-0.1,0-0.2,0-0.3,0c-0.1,0-0.1-0.1-0.1-0.1V24.2
		L168.5,24.2z M171.4,22.5c0,0.3,0,0.5,0.1,0.8c0.1,0.4,0.3,0.7,0.5,0.8c0.3,0.1,0.6,0.2,1,0.2c0.6,0,1-0.1,1.2-0.4
		c0.2-0.3,0.3-0.8,0.3-1.4v-0.5c0-0.6-0.1-1.1-0.3-1.4c-0.2-0.3-0.6-0.5-1.2-0.5c-0.6,0-1,0.2-1.2,0.5c-0.2,0.3-0.4,0.8-0.4,1.4
		L171.4,22.5L171.4,22.5z"/>
	<path class="st0" d="M138.8,36.2c0,0.5-0.1,1-0.2,1.3c-0.2,0.4-0.4,0.6-0.7,0.9c-0.3,0.2-0.6,0.4-1,0.5c-0.4,0.1-0.8,0.1-1.3,0.1
		c-0.2,0-0.4,0-0.6,0c-0.2,0-0.4,0-0.6,0v3.5c0,0.1,0,0.1-0.1,0.2c0,0.1-0.1,0.1-0.2,0.1h-0.6c-0.1,0-0.1,0-0.2-0.1
		c0-0.1-0.1-0.1-0.1-0.2v-8.7c0-0.2,0.1-0.3,0.3-0.3c0.2,0,0.5-0.1,0.9-0.1c0.3,0,0.7,0,1,0c0.5,0,0.9,0,1.3,0.1
		c0.4,0.1,0.7,0.2,1,0.5s0.5,0.5,0.7,0.8c0.2,0.3,0.2,0.8,0.2,1.3L138.8,36.2L138.8,36.2z M137.8,36c0-0.6-0.2-1.1-0.5-1.3
		c-0.4-0.3-0.9-0.4-1.7-0.4c-0.2,0-0.4,0-0.6,0c-0.2,0-0.4,0-0.6,0V38c0.1,0,0.2,0,0.3,0c0.1,0,0.2,0,0.3,0l0.3,0c0.1,0,0.2,0,0.3,0
		c0.8,0,1.4-0.1,1.7-0.4c0.3-0.3,0.5-0.8,0.5-1.4L137.8,36L137.8,36z"/>
	<path class="st0" d="M141.3,42.4c0,0.1,0,0.1-0.1,0.2s-0.1,0.1-0.2,0.1h-0.6c-0.1,0-0.1,0-0.2-0.1c0-0.1-0.1-0.1-0.1-0.2v-8.9
		c0-0.1,0-0.1,0.1-0.2c0,0,0.1-0.1,0.2-0.1h0.6c0.1,0,0.1,0,0.2,0.1c0,0,0.1,0.1,0.1,0.2V42.4z"/>
	<path class="st0" d="M147.5,42.4c0,0.1,0,0.1-0.1,0.2c0,0.1-0.1,0.1-0.2,0.1h-0.5c-0.1,0-0.1,0-0.2-0.1c0,0-0.1-0.1-0.1-0.2v-0.3
		c-0.3,0.2-0.6,0.3-0.9,0.4c-0.3,0.1-0.6,0.2-0.9,0.2c-0.2,0-0.5,0-0.7-0.1s-0.4-0.2-0.6-0.3c-0.2-0.2-0.3-0.4-0.4-0.6
		c-0.1-0.3-0.2-0.6-0.2-1v-0.1c0-0.3,0-0.6,0.1-0.9c0.1-0.3,0.3-0.5,0.5-0.6c0.2-0.2,0.5-0.3,0.9-0.4c0.4-0.1,0.8-0.1,1.3-0.1h0.9
		v-0.5c0-0.5-0.1-0.9-0.3-1.1c-0.2-0.2-0.5-0.3-1-0.3c-0.4,0-0.7,0-1,0c-0.3,0-0.5,0-0.8,0.1h-0.1c-0.1,0-0.1,0-0.1,0
		c0,0-0.1-0.1-0.1-0.2v-0.4c0-0.1,0.1-0.2,0.2-0.2c0.2,0,0.5-0.1,0.8-0.1c0.3,0,0.6-0.1,1-0.1c0.8,0,1.4,0.2,1.7,0.6
		c0.4,0.4,0.5,1,0.5,1.7V42.4L147.5,42.4z M146.4,39.3h-0.9c-0.4,0-0.6,0-0.9,0.1c-0.2,0-0.4,0.1-0.5,0.2c-0.1,0.1-0.2,0.2-0.3,0.4
		s-0.1,0.3-0.1,0.6v0.1c0,0.4,0.1,0.8,0.3,0.9s0.5,0.2,0.8,0.2c0.3,0,0.5,0,0.8-0.1c0.2-0.1,0.5-0.2,0.8-0.4V39.3L146.4,39.3z"/>
	<path class="st0" d="M152.2,42.5c0,0.1-0.1,0.2-0.2,0.2c-0.1,0-0.2,0-0.4,0c-0.1,0-0.3,0-0.4,0c-0.3,0-0.5,0-0.7-0.1
		c-0.2,0-0.4-0.1-0.5-0.3c-0.1-0.1-0.2-0.3-0.3-0.5c-0.1-0.2-0.1-0.5-0.1-0.8v-4.4l-1.1-0.1c-0.1,0-0.2-0.1-0.2-0.2V36
		c0-0.1,0.1-0.2,0.2-0.2h1.1v-1.2c0-0.1,0.1-0.2,0.2-0.2l0.6-0.1h0c0,0,0.1,0,0.1,0.1c0,0,0.1,0.1,0.1,0.2v1.4h1.3
		c0.1,0,0.1,0,0.2,0.1c0,0,0.1,0.1,0.1,0.2v0.4c0,0.1,0,0.1-0.1,0.2c0,0.1-0.1,0.1-0.2,0.1h-1.3v4.4c0,0.3,0,0.6,0.1,0.6
		c0.1,0.1,0.3,0.1,0.5,0.1h0.7c0.2,0,0.2,0.1,0.2,0.2V42.5L152.2,42.5z"/>
	<path class="st0" d="M156.6,33.9c0,0.1-0.1,0.2-0.2,0.2h-0.6c-0.3,0-0.5,0.1-0.6,0.2c-0.1,0.1-0.2,0.3-0.2,0.7v0.9h1.2
		c0.1,0,0.1,0,0.2,0.1c0,0,0.1,0.1,0.1,0.2v0.5c0,0.1-0.1,0.2-0.2,0.2h-1.2v5.7c0,0.1,0,0.1-0.1,0.2c0,0.1-0.1,0.1-0.2,0.1h-0.6
		c-0.1,0-0.1,0-0.2-0.1c0,0-0.1-0.1-0.1-0.2v-5.7l-1.1-0.1c-0.1,0-0.2-0.1-0.2-0.2V36c0-0.1,0-0.1,0.1-0.2c0,0,0.1-0.1,0.2-0.1h1.1
		v-0.9c0-0.3,0-0.6,0.1-0.8c0.1-0.2,0.2-0.4,0.3-0.5s0.3-0.2,0.5-0.3c0.2-0.1,0.4-0.1,0.7-0.1c0.2,0,0.3,0,0.4,0
		c0.1,0,0.2,0,0.3,0.1c0.1,0,0.2,0.1,0.2,0.2V33.9L156.6,33.9z"/>
	<path class="st0" d="M162.4,39.7c0,0.5-0.1,0.9-0.2,1.2c-0.1,0.4-0.3,0.7-0.5,1c-0.2,0.3-0.5,0.5-0.8,0.6c-0.3,0.1-0.7,0.2-1.1,0.2
		c-0.4,0-0.8-0.1-1.1-0.2c-0.3-0.1-0.6-0.4-0.8-0.6c-0.2-0.3-0.4-0.6-0.5-1c-0.1-0.4-0.2-0.8-0.2-1.2v-0.9c0-0.5,0.1-0.9,0.2-1.2
		c0.1-0.4,0.3-0.7,0.5-1c0.2-0.3,0.5-0.5,0.8-0.6c0.3-0.1,0.7-0.2,1.1-0.2c0.4,0,0.8,0.1,1.1,0.2c0.3,0.1,0.6,0.4,0.8,0.6
		c0.2,0.3,0.4,0.6,0.5,1c0.1,0.4,0.2,0.8,0.2,1.2V39.7z M161.4,38.8c0-0.6-0.1-1.1-0.4-1.5c-0.2-0.4-0.7-0.6-1.2-0.6
		c-0.6,0-0.9,0.2-1.2,0.6c-0.2,0.4-0.4,0.9-0.4,1.5v0.9c0,0.6,0.1,1.1,0.4,1.5s0.6,0.6,1.2,0.6c0.6,0,0.9-0.2,1.2-0.6
		c0.3-0.4,0.4-0.9,0.4-1.5V38.8L161.4,38.8z"/>
	<path class="st0" d="M166.7,36.5c0,0.1-0.1,0.2-0.2,0.2c-0.3,0-0.5,0-0.8,0.1s-0.5,0.2-0.8,0.4v5.2c0,0.1,0,0.1-0.1,0.2
		c0,0.1-0.1,0.1-0.2,0.1H164c-0.1,0-0.1,0-0.2-0.1c0-0.1-0.1-0.1-0.1-0.2v-6.4c0-0.1,0-0.1,0.1-0.2c0-0.1,0.1-0.1,0.2-0.1h0.5
		c0.1,0,0.1,0,0.2,0.1c0,0.1,0.1,0.1,0.1,0.2v0.3c0.3-0.2,0.6-0.4,0.8-0.5c0.3-0.1,0.5-0.1,0.8-0.1c0.2,0,0.2,0.1,0.2,0.2V36.5
		L166.7,36.5z"/>
	<path class="st0" d="M175.5,42.4c0,0.1,0,0.1-0.1,0.2s-0.1,0.1-0.2,0.1h-0.6c-0.1,0-0.1,0-0.2-0.1c0,0-0.1-0.1-0.1-0.2V38
		c0-0.3,0-0.5-0.1-0.6c-0.1-0.2-0.1-0.3-0.2-0.4c-0.1-0.1-0.2-0.2-0.3-0.2c-0.1,0-0.3-0.1-0.4-0.1c-0.2,0-0.4,0-0.7,0.1
		c-0.2,0.1-0.5,0.1-0.7,0.2c0.1,0.3,0.1,0.6,0.1,1v4.4c0,0.1,0,0.1-0.1,0.2c0,0.1-0.1,0.1-0.2,0.1h-0.6c-0.1,0-0.1,0-0.1-0.1
		c0-0.1-0.1-0.1-0.1-0.2V38c0-0.3,0-0.5-0.1-0.7c0-0.2-0.1-0.3-0.2-0.4c-0.1-0.1-0.2-0.2-0.3-0.2c-0.1,0-0.2-0.1-0.4-0.1
		c-0.2,0-0.4,0-0.7,0.1c-0.2,0.1-0.5,0.2-0.7,0.3v5.3c0,0.1,0,0.1-0.1,0.2c0,0.1-0.1,0.1-0.2,0.1H168c-0.1,0-0.1,0-0.1-0.1
		c0-0.1-0.1-0.1-0.1-0.2v-6.4c0-0.1,0-0.1,0.1-0.2c0-0.1,0.1-0.1,0.2-0.1h0.6c0.1,0,0.1,0,0.2,0.1c0,0.1,0.1,0.1,0.1,0.2v0.2
		c0.2-0.2,0.5-0.3,0.8-0.4c0.3-0.1,0.6-0.2,0.9-0.2c0.2,0,0.5,0,0.7,0.1c0.2,0.1,0.4,0.2,0.5,0.4c0.3-0.2,0.7-0.3,1-0.4
		c0.3-0.1,0.6-0.1,1-0.1c0.3,0,0.5,0,0.7,0.1c0.2,0.1,0.4,0.2,0.6,0.4c0.2,0.2,0.3,0.4,0.4,0.7c0.1,0.3,0.1,0.7,0.1,1.1L175.5,42.4
		L175.5,42.4z"/>
	<path class="st0" d="M134.5,13.7c0-0.1,0-0.1,0.1-0.1c0,0,0.1,0,0.2,0h1.1c0-0.1,0-0.2,0-0.2v-0.2c0-0.3,0.1-0.5,0.3-0.7
		c0.2-0.2,0.4-0.3,0.7-0.3c0.3,0,0.5,0.1,0.7,0.2s0.3,0.4,0.3,0.7c0,0.3-0.1,0.6-0.3,0.7c-0.2,0.2-0.5,0.3-1,0.3h-1.8
		c-0.2,0-0.3-0.1-0.3-0.2L134.5,13.7L134.5,13.7z M136.7,13.5c0.2,0,0.4,0,0.4-0.1c0.1-0.1,0.1-0.2,0.1-0.3c0-0.2,0-0.3-0.1-0.3
		c-0.1-0.1-0.2-0.1-0.3-0.1c-0.1,0-0.2,0-0.3,0.1c-0.1,0.1-0.1,0.2-0.1,0.4c0,0.2,0,0.3,0,0.4L136.7,13.5L136.7,13.5z"/>
</g>
</svg>
