<svg xmlns="http://www.w3.org/2000/svg" width="19" height="21" viewBox="0 0 19 21">
  <g id="Polygon_17" data-name="Polygon 17" transform="translate(0 21) rotate(-90)" fill="none">
    <path d="M7,6.335a4,4,0,0,1,7,0l3.719,6.73A4,4,0,0,1,14.219,19H6.781a4,4,0,0,1-3.5-5.935Z" stroke="none"/>
    <path d="M 10.5 6.26982307434082 C 10.14525985717773 6.26982307434082 9.264570236206055 6.370443344116211 8.749509811401367 7.302453994750977 L 5.030209541320801 14.03262424468994 C 4.531560897827148 14.9349536895752 4.883590698242188 15.720383644104 5.058090209960938 16.01619338989258 C 5.232589721679688 16.31199264526367 5.749750137329102 17.00000381469727 6.78069019317627 17.00000381469727 L 14.21930980682373 17.00000381469727 C 15.2502498626709 17.00000381469727 15.76741027832031 16.31199264526367 15.94190979003906 16.01619338989258 C 16.11640930175781 15.720383644104 16.46844100952148 14.9349536895752 15.96978950500488 14.03262424468994 L 12.25049018859863 7.302463531494141 C 11.73542022705078 6.370443344116211 10.85474014282227 6.26982307434082 10.5 6.26982307434082 M 10.5 4.26982307434082 C 11.87004280090332 4.26982307434082 13.24008560180664 4.958244323730469 14.00096988677979 6.3350830078125 L 17.72027015686035 13.06525421142578 C 19.19356918334961 15.73122406005859 17.26528930664062 19.00000381469727 14.21930980682373 19.00000381469727 L 6.78069019317627 19.00000381469727 C 3.734710693359375 19.00000381469727 1.806430816650391 15.73122406005859 3.279729843139648 13.06525421142578 L 6.999030113220215 6.3350830078125 C 7.759915351867676 4.958244323730469 9.12995719909668 4.26982307434082 10.5 4.26982307434082 Z" stroke="none" fill="#9b2e2e"/>
  </g>
</svg>
