<svg xmlns="http://www.w3.org/2000/svg" width="44.002" height="44.002" viewBox="0 0 44.002 44.002">
  <path id="_5d68104e1198ee276c0cb9a1a2ca36fa" data-name="5d68104e1198ee276c0cb9a1a2ca36fa" d="M23,1A22,22,0,1,1,1,23,22,22,0,0,1,23,1Zm0,42.708A20.707,20.707,0,1,0,2.294,23,20.707,20.707,0,0,0,23,43.708Zm3.637-22.265a.647.647,0,0,1-.8-1.014,5.685,5.685,0,0,1,3.623-1.309,6.056,6.056,0,0,1,3.655,1.436.647.647,0,0,1-.811,1.009,4.718,4.718,0,0,0-2.869-1.15,4.477,4.477,0,0,0-2.794,1.029ZM16.516,19.12a6.056,6.056,0,0,1,3.655,1.436.647.647,0,0,1-.811,1.009,4.718,4.718,0,0,0-2.869-1.15A4.5,4.5,0,0,0,13.7,21.443a.647.647,0,0,1-.8-1.014A5.715,5.715,0,0,1,16.516,19.12ZM27.8,13.363a.647.647,0,1,1-.508-1.191,10.157,10.157,0,0,1,4.951-.808,9.942,9.942,0,0,1,4.689,1.707.647.647,0,1,1-.725,1.072,8.649,8.649,0,0,0-4.082-1.49A8.874,8.874,0,0,0,27.8,13.363Zm-14.046-2a10.155,10.155,0,0,1,4.95.808.647.647,0,0,1-.508,1.191,8.881,8.881,0,0,0-4.324-.709,8.649,8.649,0,0,0-4.082,1.49.647.647,0,0,1-.725-1.072,9.942,9.942,0,0,1,4.689-1.707Zm2.283,19.424a.649.649,0,0,1,.792.456,6.4,6.4,0,0,0,12.34,0,.647.647,0,1,1,1.249.336,7.694,7.694,0,0,1-14.838,0,.646.646,0,0,1,.456-.792Z" transform="translate(-1 -1)" fill="#746d6d"/>
</svg>
