<svg xmlns="http://www.w3.org/2000/svg" width="43.761" height="43.759" viewBox="0 0 43.761 43.759">
  <path id="_05a9677441cb2ee58c2d4517dc9c541d" data-name="05a9677441cb2ee58c2d4517dc9c541d" d="M43.237,14.47a4.886,4.886,0,0,0,.385-.366,5.032,5.032,0,0,0,.249-6.142l-4.329-6.1a.636.636,0,0,0-.585-.27.648.648,0,0,0-.528.367L36.622,5.773a21.879,21.879,0,1,0,6.615,8.7ZM37.4,7.17c.467-.96.6-1.273.834-1.662a9.936,9.936,0,0,0,.9-2l3.689,5.2a3.734,3.734,0,1,1-6.418.561A15.85,15.85,0,0,1,37.4,7.17ZM22.946,43.688A20.707,20.707,0,1,1,36.052,6.975l-.826,1.742a5,5,0,0,0,6.926,6.553A20.684,20.684,0,0,1,22.946,43.688ZM13.239,19.1a.647.647,0,0,0,.647-.647c0-2.455,1.185-4.53,2.588-4.53s2.588,2.075,2.588,4.53a.647.647,0,0,0,1.294,0c0-3.266-1.7-5.824-3.883-5.824s-3.883,2.558-3.883,5.824a.647.647,0,0,0,.647.647Zm12.942,0a.647.647,0,0,0,.647-.647c0-2.413,1.21-4.53,2.588-4.53S32,16.038,32,18.451a.647.647,0,0,0,1.294,0c0-3.211-1.742-5.824-3.883-5.824s-3.883,2.612-3.883,5.824a.647.647,0,0,0,.647.647Zm10.353,9.059H9.357a.647.647,0,0,0-.647.647,10.734,10.734,0,0,0,.358,2.755v0h0c1.5,5.526,7.332,9.537,13.877,9.537s12.382-4.011,13.878-9.54a10.734,10.734,0,0,0,.358-2.755.647.647,0,0,0-.647-.647ZM22.946,39.805c-5.64,0-10.686-3.221-12.363-7.765H35.308C33.63,36.585,28.585,39.805,22.946,39.805Zm12.76-9.2c-.009.045-.02.091-.029.136H10.215c-.01-.046-.021-.091-.029-.138a9.473,9.473,0,0,1-.16-1.157H35.866a9.486,9.486,0,0,1-.161,1.158Z" transform="translate(-1.189 -1.069)" fill="#746d6d"/>
</svg>
