<svg xmlns="http://www.w3.org/2000/svg" width="44.002" height="44.002" viewBox="0 0 44.002 44.002">
  <path id="d5f5cad8a60e19a0d5fa7322c68d735f" d="M23,1A22,22,0,1,1,1,23,22,22,0,0,1,23,1Zm0,42.708A20.707,20.707,0,1,0,2.294,23,20.707,20.707,0,0,0,23,43.708Zm2.1-23.084a.647.647,0,1,1,1.059-.743,8.446,8.446,0,0,0,9.076,3.3c.163-.043.322-.091.48-.144a.647.647,0,0,1,.409,1.228q-.275.091-.554.167A9.73,9.73,0,0,1,25.1,20.624ZM10.3,23.039c.158.053.317.1.479.144a8.445,8.445,0,0,0,9.077-3.3.647.647,0,1,1,1.059.743,9.739,9.739,0,0,1-10.471,3.81q-.279-.076-.554-.167a.647.647,0,0,1,.409-1.228ZM23,29.472c3.634,0,6.82,2.869,7.749,6.975a.647.647,0,0,1-1.261.286c-.795-3.513-3.463-5.967-6.487-5.967s-5.692,2.453-6.487,5.967a.646.646,0,0,1-.631.5.619.619,0,0,1-.143-.016.645.645,0,0,1-.488-.773C16.181,32.341,19.368,29.472,23,29.472Z" transform="translate(-1 -1)" fill="#746d6d"/>
</svg>
