<svg xmlns="http://www.w3.org/2000/svg" width="44.002" height="44.002" viewBox="0 0 44.002 44.002">
  <path id="_47815f06253a7e3aab611e9205e02636" data-name="47815f06253a7e3aab611e9205e02636" d="M23,1A22,22,0,1,1,1,23,22,22,0,0,1,23,1Zm0,42.708A20.707,20.707,0,1,0,2.294,23,20.707,20.707,0,0,0,23,43.711Zm11-23.3a.647.647,0,0,1-.647-.647c0-2.455-1.481-4.53-3.235-4.53s-3.235,2.075-3.235,4.53a.647.647,0,1,1-1.294,0c0-3.211,2.032-5.824,4.53-5.824s4.53,2.612,4.53,5.824a.647.647,0,0,1-.647.647Zm-14.236,0a.647.647,0,0,1-.647-.647c0-2.455-1.481-4.53-3.235-4.53s-3.235,2.075-3.235,4.53a.647.647,0,0,1-1.294,0c0-3.211,2.032-5.824,4.53-5.824s4.53,2.612,4.53,5.824a.647.647,0,0,1-.647.647ZM9.412,28.181H36.59a.647.647,0,0,1,.647.647,10.723,10.723,0,0,1-.359,2.758c-1.5,5.526-7.332,9.537-13.877,9.537s-12.382-4.011-13.878-9.54a10.735,10.735,0,0,1-.358-2.755.647.647,0,0,1,.647-.647Zm.961,3.066C11.719,36.22,17.029,39.829,23,39.829S34.284,36.22,35.628,31.25a9.43,9.43,0,0,0,.293-1.775H10.081a9.48,9.48,0,0,0,.292,1.772Z" transform="translate(-1 -1.003)" fill="#746d6d"/>
</svg>
