<svg xmlns="http://www.w3.org/2000/svg" width="44.002" height="44.002" viewBox="0 0 44.002 44.002">
  <path id="_2e5f7a6074f846ab36f24ebd2cd8649d" data-name="2e5f7a6074f846ab36f24ebd2cd8649d" d="M23,1A22,22,0,1,1,1,23,22,22,0,0,1,23,1Zm0,42.708A20.707,20.707,0,1,0,2.294,23,20.707,20.707,0,0,0,23,43.708ZM29.472,23c-2.141,0-3.883-2.322-3.883-5.177s1.742-5.177,3.883-5.177,3.883,2.322,3.883,5.177S31.613,23,29.472,23Zm0-9.059c-1.4,0-2.588,1.778-2.588,3.883s1.185,3.883,2.588,3.883,2.588-1.778,2.588-3.883S30.875,13.942,29.472,13.942ZM16.53,12.648c2.141,0,3.883,2.322,3.883,5.177S18.671,23,16.53,23s-3.883-2.322-3.883-5.177S14.389,12.648,16.53,12.648Zm0,9.059c1.4,0,2.588-1.778,2.588-3.883s-1.185-3.883-2.588-3.883-2.588,1.778-2.588,3.883S15.127,21.707,16.53,21.707Zm.683,10.579c.231-.579,3.519-2.377,5.643-2.354a10.024,10.024,0,0,1,5.592,2.474,1.382,1.382,0,0,1,.271.989.8.8,0,0,1-.693.285c-.492-.014-3-2.352-4.949-2.446s-4.544,2.113-5.143,2.161-.722-.3-.722-.3S16.983,32.864,17.214,32.286Zm-6.77-21.053a4.206,4.206,0,0,0,2.919-.623A4.575,4.575,0,0,0,15.094,8.04a.647.647,0,1,1,1.239.372,5.9,5.9,0,0,1-2.239,3.267,5.292,5.292,0,0,1-3.024.884,6.7,6.7,0,0,1-.772-.045.647.647,0,1,1,.147-1.285ZM29.162,8.411a.648.648,0,0,1,1.241-.37,4.563,4.563,0,0,0,1.729,2.569,4.2,4.2,0,0,0,2.921.623.647.647,0,0,1,.147,1.285,6.7,6.7,0,0,1-.771.045,5.3,5.3,0,0,1-3.027-.884A5.9,5.9,0,0,1,29.162,8.411Z" transform="translate(-1 -1)" fill="#746d6d"/>
</svg>
